<?xml version="1.0" encoding="UTF-8" standalone="no"?>
<svg
   xmlns:dc="http://purl.org/dc/elements/1.1/"
   xmlns:cc="http://creativecommons.org/ns#"
   xmlns:rdf="http://www.w3.org/1999/02/22-rdf-syntax-ns#"
   xmlns:svg="http://www.w3.org/2000/svg"
   xmlns="http://www.w3.org/2000/svg"
   xmlns:sodipodi="http://sodipodi.sourceforge.net/DTD/sodipodi-0.dtd"
   xmlns:inkscape="http://www.inkscape.org/namespaces/inkscape"
   width="70.379417"
   height="33.629337"
   version="1.1"
   viewBox="0 0 18.621068 8.8976892"
   id="svg861"
   sodipodi:docname="infinity.svg"
   inkscape:version="1.0.2-2 (e86c870879, 2021-01-15)">
  <metadata
     id="metadata867">
    <rdf:RDF>
      <cc:Work
         rdf:about="">
        <dc:format>image/svg+xml</dc:format>
        <dc:type
           rdf:resource="http://purl.org/dc/dcmitype/StillImage" />
        <dc:title></dc:title>
      </cc:Work>
    </rdf:RDF>
  </metadata>
  <defs
     id="defs865" />
  <sodipodi:namedview
     pagecolor="#ffffff"
     bordercolor="#666666"
     borderopacity="1"
     objecttolerance="10"
     gridtolerance="10"
     guidetolerance="10"
     inkscape:pageopacity="0"
     inkscape:pageshadow="2"
     inkscape:window-width="2560"
     inkscape:window-height="1377"
     id="namedview863"
     showgrid="false"
     inkscape:zoom="5.6710658"
     inkscape:cx="27.065515"
     inkscape:cy="31.312112"
     inkscape:window-x="-8"
     inkscape:window-y="-8"
     inkscape:window-maximized="1"
     inkscape:current-layer="g855"
     inkscape:document-rotation="0"
     fit-margin-top="0"
     fit-margin-left="0"
     fit-margin-right="0"
     fit-margin-bottom="0" />
  <g
     transform="translate(-130.94869,-834.47913)"
     id="g859">
    <g
       transform="translate(-120.83,50.045)"
       id="g857">
      <g
         id="g855">
        <path
           d="m 257.01,785.8 c -0.50643,-0.0747 -1.0178,-0.0507 -1.4915,0.068 -0.70063,0.17454 -1.3316,0.5538 -1.788,1.0495 -0.49204,0.53257 -0.79703,1.2067 -0.88128,1.8693 -0.11066,0.84288 0.12963,1.6882 0.56001,2.3138 0.50155,0.73346 1.2676,1.1989 1.9972,1.3783 0.93858,0.23322 1.8432,0.0273 2.4753,-0.29919 1.0543,-0.54226 1.5587,-1.4772 1.7134,-1.7239 0.007,-0.0113 0.42867,-0.50226 0.0126,0.52953 -0.18026,0.44703 -0.59885,1.1631 -1.4292,1.7017 -0.71177,0.46025 -1.763,0.79127 -2.9378,0.57918 -0.93336,-0.17035 -1.9121,-0.69491 -2.6021,-1.6077 -0.60022,-0.79766 -0.94746,-1.8646 -0.8408,-2.9878 0.0876,-0.89466 0.46102,-1.7864 1.0949,-2.5063 0.59998,-0.67962 1.4135,-1.1913 2.3304,-1.436 0.87958,-0.23373 1.8312,-0.22258 2.7322,0.0461 0.87205,0.26079 1.6773,0.75106 2.3227,1.4195 0.81759,0.86436 1.3178,1.8778 1.8037,2.8296 0.49065,0.91589 0.98061,1.8064 1.7049,2.3521 0.36276,0.28563 0.79093,0.49692 1.2423,0.61852 0.30973,0.0834 0.62643,0.12359 0.93701,0.11886 0.80627,-0.01 1.59,-0.31993 2.1669,-0.80537 0.62865,-0.52602 1.0374,-1.2717 1.1742,-2.0128 0.15474,-0.82625 -0.0157,-1.6706 -0.38284,-2.3266 -0.31923,-0.57293 -0.78861,-1.0237 -1.2934,-1.3199 -0.58961,-0.34665 -1.2366,-0.49238 -1.8148,-0.49417 -0.74081,-0.003 -1.387,0.22306 -1.8625,0.49154 -0.80146,0.45195 -1.2995,1.1432 -1.4189,1.2712 -0.0462,0.0495 -0.31328,0.15905 0.12668,-0.59505 0.18231,-0.31248 0.50259,-0.73509 1.0124,-1.1072 0.50966,-0.37165 1.2334,-0.70504 2.1152,-0.76974 v 0 c 0.69983,-0.0509 1.4932,0.0727 2.2477,0.45927 0.65499,0.3362 1.2679,0.86778 1.7079,1.579 0.51392,0.8335 0.77046,1.8959 0.60561,2.9856 -0.15265,0.99565 -0.65619,1.9739 -1.4768,2.6975 -0.77117,0.67725 -1.7921,1.1006 -2.8801,1.134 -1.0392,0.0298 -2.099,-0.30052 -2.9561,-0.95975 -0.94922,-0.75407 -1.5553,-1.7604 -2.0542,-2.7445 -0.49969,-0.94037 -0.93811,-1.881 -1.5933,-2.5474 -0.48977,-0.51152 -1.1116,-0.90634 -1.7858,-1.114 -0.19371,-0.0599 -0.39263,-0.10493 -0.5939,-0.13461 z"
           fill="#f96e46"
           id="path853" />
      </g>
    </g>
  </g>
</svg>
