<?xml version="1.0" encoding="UTF-8"?>
<svg width="410.67" height="111.38" version="1.1" viewBox="0 0 108.66 29.471" xmlns="http://www.w3.org/2000/svg"><g transform="translate(8.6696 -824.03)"><g transform="translate(-120.83 50.045)"><path d="m112.16 773.98h108.66v29.471h-108.66z" fill="#0b0033" fill-rule="evenodd"/><g transform="translate(88.289 704.65)" fill="#fff" style="shape-inside:url(#rect1818);white-space:pre" aria-label="INTEM"><path d="m33.979 79.598h0.55316v8.0151h-0.55316z"/><path d="m43.789 87.805-6.3218-7.1233 0.14676-0.11289 0.01129 7.0443h-0.54187v-8.1845h0.03387l6.3218 7.1797-0.14676 0.04516-0.01129-7.0556h0.53058v8.207z"/><path d="m45.719 79.598h5.2493v0.53058h-2.3594v7.4845h-0.55316v-7.4845h-2.3368z"/><path d="m52.876 79.598h4.9445v0.53058h-4.3914v3.1835h3.9511v0.53058h-3.9511v3.2399h4.5494v0.53058h-5.1026z"/><path d="m60.09 87.613v-8.1957h0.01129l3.9511 5.6106-0.23707-0.03387 3.9398-5.5767h0.01129v8.1957h-0.54187v-6.9201l0.04516 0.27093-3.3415 4.7075h-0.02258l-3.3641-4.7075 0.09031-0.24836v6.8975z"/></g><g transform="translate(154.63 685.7)" fill="#fff" style="shape-inside:url(#rect1820);white-space:pre" aria-label="RALIS"><path d="m28.171 98.682q0.45156 0 0.89182 0.13547 0.45156 0.12418 0.8128 0.4064 0.37253 0.27093 0.59831 0.69991 0.22578 0.42897 0.22578 1.0273 0 0.45155-0.13547 0.88053-0.13547 0.41769-0.44027 0.75636-0.3048 0.33866-0.79022 0.54186-0.48542 0.2032-1.1966 0.2032h-1.2418v3.3641h-0.55316v-8.0151zm-0.06773 4.1205q0.59831 0 0.99342-0.16934 0.39511-0.16933 0.62089-0.44026 0.22578-0.27094 0.31609-0.58703 0.1016-0.32738 0.1016-0.63218 0-0.36124-0.13547-0.67733-0.12418-0.31609-0.37253-0.55316-0.24836-0.24836-0.59831-0.38382-0.34996-0.14676-0.77893-0.14676h-1.3547v3.5899zm1.1515 0.24835 2.2239 3.6463h-0.64347l-2.2352-3.635z"/><path d="m32.788 106.7 3.3867-8.3651h0.04516l3.3867 8.3651h-0.62089l-2.9464-7.4845 0.38382-0.21449-3.0819 7.699zm1.6369-3.1722h3.556l0.15804 0.51928h-3.8495z"/><path d="m41.458 98.682h0.55316v7.4845h4.3914v0.53058h-4.9445z"/><path d="m48.265 98.682h0.55316v8.0151h-0.55316z"/><path d="m55.377 99.585q-0.34996-0.16933-0.85796-0.31609-0.508-0.14676-1.016-0.14676-0.79022 0-1.2644 0.39511-0.47413 0.39511-0.47413 0.99342 0 0.45156 0.27093 0.75636 0.27093 0.29351 0.7112 0.508 0.44027 0.2032 0.93698 0.39511 0.39511 0.14675 0.77893 0.32738 0.39511 0.18062 0.7112 0.44026 0.31609 0.25965 0.49671 0.64347 0.19191 0.38382 0.19191 0.94827 0 0.66604-0.31609 1.1853-0.31609 0.508-0.88053 0.79023-0.56444 0.28222-1.3095 0.28222-0.59831 0-1.095-0.14676-0.48542-0.14675-0.85796-0.33866-0.36124-0.20321-0.57573-0.33867l0.25964-0.45156q0.24836 0.18062 0.59831 0.36125 0.36124 0.18062 0.77893 0.3048 0.41769 0.12418 0.83538 0.12418 0.48542 0 0.93698-0.19192 0.46284-0.19191 0.75636-0.57573 0.3048-0.39511 0.3048-0.99342 0-0.57574-0.28222-0.92569-0.28222-0.36125-0.72249-0.58703-0.44027-0.22577-0.93698-0.4064-0.38382-0.14675-0.76765-0.3048-0.38382-0.16933-0.69991-0.39511-0.31609-0.23707-0.508-0.56444-0.18062-0.32738-0.18062-0.79023 0-0.57573 0.29351-1.0047 0.29351-0.42898 0.79022-0.66604 0.508-0.24836 1.1515-0.25964 0.56444 0 1.1402 0.14676 0.58702 0.14676 1.016 0.37253z"/></g><path d="m159.43 786.25c0.28883 2e-3 0.50883 2.3687 0.49743 5.2826-6e-3 1.446-0.0666 2.7621-0.16076 3.714-0.0571 0.57722-0.12802 1.0311-0.20362 1.2925-0.0267 0.0889-0.055 0.1589-0.0829 0.20464-0.0657 0.0175-0.0779 0.0334-0.0811 0.0436-2e-3 7e-3 -4.6e-4 0.0115 8.3e-4 0.0153 9.8e-4 3e-3 2e-3 2e-3 2e-3 2e-3s9e-4 8.8e-4 1e-3 -1e-3c5.1e-4 -3e-3 2e-3 -8e-3 -7.3e-4 -0.0132-4e-3 -9e-3 -0.0169-0.0218-0.0832-0.0362-0.0305-0.0456-0.0593-0.1162-0.0877-0.21221-0.0815-0.26829-0.15122-0.71109-0.20817-1.2954-0.0932-0.95674-0.14806-2.2666-0.14239-3.7175 0.0114-2.9158 0.26025-5.28 0.54908-5.2785z" fill="#f96e46"/><path d="m164.35 784.31c-0.50643-0.0747-1.0178-0.0507-1.4915 0.068-0.70063 0.17454-1.3316 0.5538-1.788 1.0495-0.49204 0.53257-0.79703 1.2067-0.88128 1.8693-0.11066 0.84288 0.12963 1.6882 0.56001 2.3138 0.50155 0.73346 1.2676 1.1989 1.9972 1.3783 0.93858 0.23322 1.8432 0.0273 2.4753-0.29919 1.0543-0.54226 1.5587-1.4772 1.7134-1.7239 7e-3 -0.0113 0.42867-0.50226 0.0126 0.52953-0.18026 0.44703-0.59885 1.1631-1.4292 1.7017-0.71177 0.46025-1.763 0.79127-2.9378 0.57918-0.93336-0.17035-1.9121-0.69491-2.6021-1.6077-0.60022-0.79766-0.94746-1.8646-0.8408-2.9878 0.0876-0.89466 0.46102-1.7864 1.0949-2.5063 0.59998-0.67962 1.4135-1.1913 2.3304-1.436 0.87958-0.23373 1.8312-0.22258 2.7322 0.0461 0.87205 0.26079 1.6773 0.75106 2.3227 1.4195 0.81759 0.86436 1.3178 1.8778 1.8037 2.8296 0.49065 0.91589 0.98061 1.8064 1.7049 2.3521 0.36276 0.28563 0.79093 0.49692 1.2423 0.61852 0.30973 0.0834 0.62643 0.12359 0.93701 0.11886 0.80627-0.01 1.59-0.31993 2.1669-0.80537 0.62865-0.52602 1.0374-1.2717 1.1742-2.0128 0.15474-0.82625-0.0157-1.6706-0.38284-2.3266-0.31923-0.57293-0.78861-1.0237-1.2934-1.3199-0.58961-0.34665-1.2366-0.49238-1.8148-0.49417-0.74081-3e-3 -1.387 0.22306-1.8625 0.49154-0.80146 0.45195-1.2995 1.1432-1.4189 1.2712-0.0462 0.0495-0.31328 0.15904 0.12668-0.59505 0.18231-0.31249 0.50259-0.73509 1.0124-1.1072 0.50966-0.37165 1.2334-0.70504 2.1152-0.76974v0c0.69983-0.0509 1.4932 0.0727 2.2477 0.45927 0.65499 0.3362 1.2679 0.86778 1.7079 1.579 0.51392 0.8335 0.77046 1.8959 0.60561 2.9856-0.15265 0.99565-0.65619 1.9739-1.4768 2.6975-0.77117 0.67725-1.7921 1.1006-2.8801 1.134-1.0392 0.0298-2.099-0.30052-2.9561-0.95975-0.94922-0.75407-1.5553-1.7604-2.0542-2.7445-0.49969-0.94037-0.93811-1.881-1.5933-2.5474-0.48977-0.51152-1.1116-0.90634-1.7858-1.114-0.19371-0.0599-0.39263-0.10493-0.5939-0.13461z" fill="#f96e46"/></g></g></svg>
