<?xml version="1.0" encoding="UTF-8" standalone="no"?>
<svg
   xmlns:dc="http://purl.org/dc/elements/1.1/"
   xmlns:cc="http://creativecommons.org/ns#"
   xmlns:rdf="http://www.w3.org/1999/02/22-rdf-syntax-ns#"
   xmlns:svg="http://www.w3.org/2000/svg"
   xmlns="http://www.w3.org/2000/svg"
   width="861.83"
   height="863.91"
   version="1.1"
   viewBox="0 0 228.03 228.58"
   id="svg70">
  <defs
     id="defs74" />
  <metadata
     id="metadata2">
    <rdf:RDF>
      <cc:Work
         rdf:about="">
        <dc:format>image/svg+xml</dc:format>
        <dc:type
           rdf:resource="http://purl.org/dc/dcmitype/StillImage" />
        <dc:title></dc:title>
      </cc:Work>
    </rdf:RDF>
  </metadata>
  <g
     transform="translate(35.809 -32.318)"
     id="g68">
    <g
       transform="matrix(.37461 0 0 .37461 48.909 91.689)"
       id="g66">
      <g
         transform="matrix(1.1435 0 0 1.1435 -11.225 -21.043)"
         id="g64">
        <path
           d="m78.205-120.19c147.45 0 266.15 118.7 266.15 266.15v1.2879c0 147.45-118.7 266.15-266.15 266.15-147.45 0-266.15-118.7-266.15-266.15v-1.2879c0-147.45 118.7-266.15 266.15-266.15z"
           fill="#154257"
           fill-rule="evenodd"
           stroke-width="1.0477"
           id="path4"
           style="fill:#0c2531;fill-opacity:1" />
        <g
           fill="#fff"
           id="g62">
          <path
             d="m303.44 128.35c1.7705-2.2961 3.2134-2.6883 3.1392-2.5634-0.074 0.125-1.6074 0.8632-3.0436 3.1371-0.666 1.0514-1.2154 2.3748-1.5449 4.0472-0.6201 3.1409-0.4132 6.3283 0.2676 10.882 0.6309 4.1746 1.4433 7.8685 2.5286 13.042 0.075 0.3556 0.1495 0.7122 0.2232 1.0697 1.1047 5.3188 2.1773 10.808 2.9581 16.404 1.6946 12.11 2.052 22.862-0.5568 33.099-1.2952 5.0972-3.2077 9.0975-5.7881 12.136-1.4869 1.7486-3.0713 2.9816-4.5552 3.8209-0.612 0.3458-1.2036 0.6223-1.7523 0.8436-2.5622 1.034-4.6296 1.1676-3.8943 0.8988 0.3258-0.1191 2.5242-0.3799 5.4026-2.1569 1.3799-0.8511 2.8777-2.0802 4.2965-3.8313 2.3678-2.918 4.1714-6.7622 5.4285-11.925 0.708-2.9163 1.2158-6.0594 1.491-9.4736 0.6281-7.7903-0.06-15.587-1.1217-23.272-0.7864-5.6758-1.8627-11.265-2.8826-16.364-1.0846-5.4188-1.9786-9.5838-2.6013-14.188-0.6078-4.4409-0.759-7.8287-0.02-11.096h1e-4c0.3838-1.6944 1.0092-3.0694 1.7649-4.1555 0.086-0.1231 0.173-0.2416 0.2609-0.3555zm9.4536-0.4016c0.022-0.044 0.044-0.088 0.066-0.1312 1.2697-2.4561 2.6391-2.9838 2.6393-2.8992 0 0.085-1.2661 0.8495-2.2841 3.0757-0.4992 1.0893-0.8525 2.3992-1.03 4.0888-0.3433 3.2785-0.017 6.4335 0.7154 11.196 0.6863 4.4274 1.5756 8.8144 2.5804 14.46 0 4e-4 0.021 0.1215 0.021 0.122 0.9773 5.5 1.8589 11.126 2.4327 16.904 1.2435 12.477 1.0726 23.636-1.8751 34.077-1.5014 5.3275-3.5624 9.5182-6.1851 12.761-2.171 2.6829-4.5409 4.3006-6.4073 5.2303-0.3977 0.1982-2.2141 0.8317-3.4972 1.2383-1.4913 0.4726-1.6371 0.4712 0.2663-0.2235 1.3826-0.5047 5.3952-1.8444 9.1262-6.6766 2.41-3.1191 4.3659-7.165 5.8312-12.568 0.7358-2.7183 1.3226-5.6368 1.7339-8.7861 1.0826-8.289 0.7594-16.665-0.047-24.93-0.5797-5.9234-1.4452-11.523-2.3494-16.85-0.9896-5.8256-1.7542-9.7044-2.4389-14.64-0.6467-4.625-0.922-7.9953-0.4661-11.382 0.2191-1.631 0.6172-2.9601 1.1669-4.0665zm-25.689 98.211c2.6204-1.2383 4.0687-0.9261 3.9461-0.8492-0.1226 0.076-1.8107 0.031-4.1259 1.4023-1.0718 0.6331-2.1683 1.564-3.2288 2.9101-1.9895 2.5225-3.277 5.4896-4.7251 9.8949-1.306 3.9936-2.2646 7.8107-3.5531 12.932 0.046-0.1848-0.3163 1.2552-0.2698 1.0704-1.3424 5.314-2.7536 10.801-4.4352 16.247-3.6458 11.824-7.7552 21.796-14.37 30.154-3.284 4.1551-6.6706 7.0534-10.282 8.8043-2.0792 1.0064-4.0378 1.5008-5.7442 1.6746-0.7033 0.074-1.3602 0.087-1.9553 0.07-2.791-0.081-4.7226-0.7877-3.9501-0.7404 0.3509 0.021 2.4753 0.6647 5.8483 0.1897 1.6154-0.227 3.4927-0.7528 5.5107-1.7894 3.3673-1.7268 6.5894-4.5267 9.8662-8.7595 1.8491-2.392 3.6106-5.0711 5.2798-8.0949 3.8082-6.8986 6.4526-14.339 8.7771-21.828 1.7058-5.5037 3.1733-11.128 4.4921-16.187 1.3968-5.3621 2.4863-9.6222 3.9996-14.015 1.4661-4.2766 2.8939-7.3966 5.0501-9.9809 1.12-1.3416 2.307-2.2837 3.4751-2.9074 0.1326-0.07 0.2642-0.1364 0.3942-0.1979v1e-4zm8.5314 3.9222c0.039-0.029 0.079-0.057 0.1179-0.086 2.2322-1.5951 3.6759-1.4343 3.638-1.3599-0.037 0.075-1.4986 0.1702-3.4039 1.6765-0.9328 0.736-1.8383 1.7363-2.7572 3.1555-1.7774 2.7466-2.9185 5.7235-4.3763 10.306-1.4704 4.6397-2.3864 8.2423-4.0358 14.153-1e-4 4e-4 -0.033 0.1193-0.033 0.1199-1.5069 5.3959-3.1218 10.884-5.0498 16.384-4.1671 11.902-8.9099 21.991-15.904 30.357-3.561 4.2636-7.1575 7.2626-10.888 9.1732-3.086 1.5793-5.922 2.1057-8.0162 2.2055-0.4439 0.022-2.3771-0.1308-3.7205-0.2743-1.5469-0.1651-1.7148-0.2283 0.3355-0.098 1.4768 0.094 5.7103 0.4806 11.105-2.4379 3.4853-1.8842 6.9255-4.7942 10.486-9.1444 1.7896-2.1887 3.5264-4.6185 5.2035-7.3308 4.4134-7.1374 7.611-14.92 10.386-22.79 1.9852-5.6373 3.6083-11.099 5.1079-16.308 1.6019-5.5674 2.7081-9.6614 4.2485-14.261 1.4773-4.4272 2.7584-7.569 4.6881-10.365 0.9302-1.3489 1.8845-2.346 2.8701-3.0747zm-65.509 78.869c2.912-0.092 4.1208 0.7806 3.9769 0.8022-0.1438 0.023-1.6809-0.7011-4.365-0.3635-1.2419 0.1547-2.6259 0.5746-4.1423 1.393-2.843 1.5325-5.2149 3.7583-8.2998 7.2396-2.7919 3.1607-5.1832 6.2865-8.3966 10.477 0.1022-0.1331-0.7739 1.0081-0.6717 0.8748-3.3383 4.3433-6.7994 8.7985-10.501 13.102-8.0232 9.3348-15.772 16.75-25.17 21.626-4.6672 2.4257-8.9247 3.657-12.905 3.7471-2.2919 0.05-4.2617-0.3157-5.8696-0.8683-0.6628-0.2281-1.2602-0.487-1.788-0.7503-2.4507-1.223-3.94-2.6949-3.2413-2.3154 0.3011 0.1634 1.95 1.6373 5.1773 2.6093 1.5478 0.467 3.457 0.7709 5.7052 0.668 3.7488-0.169 7.8167-1.3776 12.507-3.8756 2.6483-1.4129 5.3321-3.1269 8.0669-5.1963 6.242-4.7233 11.618-10.432 16.716-16.342 3.7473-4.3485 7.3085-8.9027 10.526-13.025 3.4057-4.3655 6.0928-7.8484 9.233-11.294 3.0496-3.3563 5.6112-5.6679 8.6327-7.1914 1.5694-0.7907 3.0413-1.185 4.3682-1.2923 0.1504-0.014 0.2984-0.017 0.4427-0.024zm6.2781 7.0449c0.048-0.014 0.095-0.022 0.1433-0.031 2.6972-0.5708 3.9628 0.1605 3.8978 0.2136-0.064 0.053-1.4494-0.4481-3.8096 0.1721-1.155 0.3023-2.3909 0.8595-3.8063 1.7974-2.7375 1.8152-4.9803 4.1005-8.1487 7.73-3.2106 3.6862-5.4701 6.6113-9.3435 11.38-3e-4 4e-4 -0.078 0.096-0.079 0.097-3.5303 4.3447-7.1927 8.7192-11.154 12.972-8.5617 9.1979-16.965 16.473-26.747 21.22-4.9812 2.4201-9.4868 3.6655-13.657 3.8597-3.4505 0.1597-6.2332-0.5384-8.1651-1.3167-0.9221-0.3715-6.7543-3.8297-2.8975-1.742 1.2919 0.6993 4.9513 2.8121 11.046 2.3906 3.9355-0.2704 8.2622-1.4986 13.276-3.9968 2.5214-1.2577 5.0916-2.7596 7.7186-4.546 6.9031-4.6942 12.956-10.505 18.636-16.583 4.0656-4.3532 7.7257-8.7033 11.173-12.88 3.6879-4.4683 6.3255-7.7792 9.5799-11.396 3.1241-3.4802 5.5613-5.8615 8.4591-7.6616 1.3977-0.8689 2.6771-1.4037 3.8778-1.6782zm-91.169 45.421c2.6453 1.144 3.3697 2.4312 3.2316 2.3903-0.1381-0.041-1.2181-1.3318-3.7614-2.1604-1.1761-0.385-2.5885-0.5928-4.2851-0.504-3.1863 0.1656-6.2208 1.1401-10.456 2.9161-3.8813 1.6345-7.2583 3.3366-12.002 5.6744-0.3263 0.1608-0.6537 0.3219-0.982 0.4828-4.8813 2.3937-9.9624 4.8139-15.239 6.9685-0.8281 0.3387-1.6497 0.6674-2.4648 0.9861-10.459 4.1142-20.152 6.6341-30.014 6.4932-5.2739-0.072-9.6167-1.0172-13.162-2.833-2.0411-1.0472-3.5995-2.3083-4.75-3.5602-0.4741-0.5164-0.8761-1.0287-1.2147-1.5118-1.5708-2.2414-2.1807-4.2477-1.7462-3.5798 0.1861 0.2862 0.9347 2.3693 3.3084 4.7607 1.1387 1.1482 2.6732 2.3253 4.701 3.3053 3.3775 1.6355 7.5429 2.511 12.869 2.5291 3.0087 0.01 6.1969-0.2374 9.5952-0.7829 6.9887-1.1226 13.733-3.3267 20.312-5.9344 0.7247-0.2846 1.4469-0.5735 2.1669-0.866 5.35-2.1755 10.531-4.6231 15.218-6.8762 4.9886-2.399 8.7949-4.2926 13.099-6.0251 4.147-1.6768 7.3888-2.6457 10.728-2.7267 1.7316-0.042 3.2116 0.2267 4.4441 0.6897 0.1397 0.053 0.2752 0.1078 0.4064 0.1645v1e-4zm2.6937 8.966c0.048 0.011 0.095 0.02 0.142 0.031 2.6651 0.6172 3.4998 1.8008 3.4191 1.8217-0.08 0.021-1.1184-1.0063-3.5015-1.4379-1.166-0.2123-2.5101-0.2305-4.1771 0.015-3.2335 0.4767-6.1934 1.5713-10.602 3.4685-4.717 2.0361-7.5079 3.4557-13.342 6.1423-5e-4 1e-4 -0.1127 0.051-0.113 0.053-5.0889 2.3414-10.358 4.6374-15.879 6.6662-1.2317 0.4531-2.4518 0.8862-3.6602 1.2981-10.542 3.5129-20.405 5.4801-30.236 5.0703-5.5675-0.2295-10.146-1.2838-13.913-3.1007-3.1175-1.5047-5.2339-3.4473-6.5618-5.0525-0.2847-0.3442-1.3097-1.964-1.9953-3.1219-0.8055-1.3601-0.8164-1.4685 0.2774 0.2088 0.7776 1.1924 3.0273 4.8426 8.5832 7.3696 3.5955 1.6369 8.0081 2.6218 13.639 2.7971 2.833 0.087 5.8314-0.022 9.016-0.3632 7.1961-0.771 14.223-2.603 21.09-4.9104 1.1315-0.3877 2.2568-0.7872 3.3763-1.1958 5.6576-2.0671 10.91-4.3402 15.847-6.5634 5.4011-2.433 8.9653-4.1529 13.555-6.0462 4.3004-1.7792 7.4795-2.8772 10.847-3.2719 1.6214-0.1904 2.9951-0.1338 4.1901 0.1228zm-101.44-1.0744c1.7814 2.2649 1.8044 3.7419 1.7025 3.6402-0.1017-0.1018-0.4359-1.7513-2.2781-3.6902-0.851-0.8982-1.9947-1.753-3.5307-2.4816-2.8814-1.3681-6.0265-1.9558-10.606-2.3973-4.1672-0.3949-8.0307-0.4956-13.29-0.6522 0.1231 0-1.2183-0.037-1.0953-0.033-5.4404-0.1693-11.061-0.3837-16.71-0.8823-12.249-1.0761-22.843-3.0437-32.35-7.791-4.7303-2.3578-8.2556-5.0774-10.704-8.2523-1.4078-1.8285-2.2904-3.6441-2.8077-5.2787-0.2129-0.6742-0.3622-1.3136-0.4663-1.8996-0.4883-2.7478-0.1897-4.7858-0.079-4.0184 0.05 0.3479-0.1474 2.5599 1.0036 5.7642 0.5506 1.535 1.4474 3.2646 2.8723 5.027 2.3744 2.9413 5.7696 5.5204 10.574 7.8556 2.7142 1.317 5.6908 2.4885 8.9833 3.4966 7.5104 2.2996 15.308 3.3411 23.072 4.0381 5.7175 0.511 11.464 0.7491 16.66 0.9502 5.5105 0.2125 9.8373 0.3455 14.43 0.8541 4.4571 0.4866 7.7815 1.177 10.758 2.6922 1.5444 0.7868 2.7188 1.727 3.5821 2.7206 0.098 0.1128 0.1908 0.2257 0.2792 0.338zm-1.9037 9.1649c0.037 0.032 0.074 0.064 0.1097 0.095 2.0487 1.8122 2.2185 3.251 2.1376 3.2307-0.081-0.02-0.5037-1.4178-2.3928-2.9326-0.9238-0.7421-2.0967-1.3984-3.6788-1.9761-3.0652-1.1183-6.1973-1.5668-10.969-1.9855-4.9165-0.4258-8.4326-0.5251-14.623-0.8747-5e-4 0-0.1231-0.01-0.1236-0.01-5.5691-0.3158-11.252-0.7306-17.016-1.4584-12.462-1.5692-23.313-4.1275-32.92-9.2391-4.8988-2.6036-8.5693-5.5051-11.201-8.7615-2.1759-2.6942-3.2694-5.3605-3.7941-7.3891-0.1117-0.4304-0.3564-2.3523-0.4896-3.6967-0.1538-1.5501-0.1254-1.7227 0.1644 0.3083 0.2092 1.4645 0.6933 5.6868 4.6507 10.364 2.555 3.022 6.1063 5.7895 11.089 8.3746 2.5066 1.2992 5.2383 2.4963 8.2329 3.5755 7.8796 2.8395 16.14 4.3492 24.386 5.4061 5.9083 0.755 11.564 1.1826 16.95 1.5308 5.7969 0.3742 9.9267 0.5588 14.77 1.0575 4.623 0.471 7.9476 1.0198 11.093 2.2742 1.516 0.6041 2.6966 1.3084 3.6248 2.1032zm-90.419-47.257c0.6816 2.835 0.074 4.1957 0.023 4.0591-0.051-0.1365 0.3445-1.7884-0.5317-4.3505-0.4036-1.1857-1.0966-2.4573-2.2067-3.7782-2.0793-2.4764-4.7447-4.3535-8.7901-6.6732-3.6647-2.0936-7.2382-3.8127-12.01-6.106 0.1976 0.095-1.1956-0.575-0.9981-0.4801-4.9546-2.3865-10.057-4.8676-15.061-7.6042-10.864-5.936-19.788-11.946-26.616-20.093-3.3942-4.0441-5.5354-7.9368-6.5081-11.812-0.5583-2.2311-0.6408-4.2398-0.4614-5.9365 0.074-0.6995 0.1927-1.342 0.3312-1.9175 0.6471-2.6894 1.7369-4.4435 1.5297-3.6918-0.092 0.3349-1.1556 2.2734-1.3813 5.6517-0.1089 1.619 0.021 3.5545 0.6215 5.7318 0.9987 3.6321 3.077 7.3441 6.5483 11.396 1.9624 2.2873 4.2247 4.5468 6.8449 6.7847 5.9796 5.1069 12.729 9.1775 19.609 12.952 5.0541 2.7703 10.284 5.3354 14.992 7.6465 4.9869 2.4469 8.9694 4.3826 12.986 6.7616 3.916 2.3112 6.7037 4.3571 8.8105 7.0108 1.0937 1.3785 1.7792 2.7416 2.1538 4.0202 0.042 0.1451 0.081 0.2882 0.1136 0.4289zm-5.6207 7.5829c0.02 0.044 0.04 0.09 0.061 0.1338 1.1084 2.5253 0.65 3.9126 0.5847 3.8599-0.066-0.052 0.1436-1.5099-0.9444-3.695-0.5314-1.0694-1.3289-2.1667-2.5363-3.3622-2.3355-2.3117-5.0344-4.0463-9.2417-6.4106-4.2428-2.3781-7.6373-4.0283-13.088-6.8284-4e-4 -3e-4 -0.1104-0.057-0.1109-0.057-4.9939-2.5669-10.05-5.2518-15.053-8.2454-10.826-6.4729-19.735-13.138-26.497-21.673-3.4451-4.3441-5.6439-8.4688-6.75-12.5-0.914-3.3344-0.8493-6.208-0.5193-8.2693 0.1551-0.9693 2.2322-7.4728 1.054-3.2216-0.3933 1.4191-1.6365 5.4651 0.115 11.325 1.1301 3.7853 3.2735 7.7391 6.8033 12.099 1.7764 2.1922 3.8004 4.3813 6.1139 6.5684 6.079 5.7469 13.06 10.446 20.216 14.745 5.1252 3.0762 10.156 5.7645 14.969 8.2859 5.1334 2.6889 8.9532 4.6147 13.153 7.0587 4.0521 2.3522 6.884 4.2575 9.2378 6.7297 1.1361 1.1925 1.9205 2.3369 2.4338 3.4568zm-64.041-79.972c-0.5106 2.8475-1.6064 3.8459-1.5978 3.7016 0.01-0.1444 1.0263-1.492 1.2513-4.1682 0.106-1.238-0.017-2.6674-0.4977-4.3067-0.9007-3.0753-2.566-5.8267-5.2961-9.5418-2.4921-3.3801-4.9894-6.3162-8.3761-10.337 0.071 0.084-0.7744-0.921-0.7037-0.8369-3.4936-4.1609-7.0581-8.4777-10.415-13.018-7.2721-9.827-12.739-19.105-15.28-29.419-1.268-5.1306-1.4538-9.5959-0.5752-13.513 0.5075-2.2558 1.3491-4.0945 2.2878-5.5331 0.3871-0.5928 0.7888-1.1138 1.178-1.5656 1.7943-2.0825 3.6403-3.2045 3.0788-2.5998-0.2331 0.251-2.0989 1.5053-3.8464 4.4227-0.8393 1.3995-1.6059 3.1948-2.0518 5.42-0.7456 3.708-0.5389 7.9821 0.7924 13.15 0.754 2.9187 1.7978 5.9383 3.1799 9.0809 3.1535 7.1707 7.4901 13.69 12.092 19.932 3.3942 4.6005 7.0207 9.0196 10.33 13.021 3.5102 4.243 6.2938 7.5454 8.9857 11.318 2.6149 3.6532 4.324 6.607 5.1785 9.8525 0.4429 1.6848 0.5223 3.1949 0.3536 4.505-0.019 0.1487-0.042 0.2939-0.067 0.435zm-8.1447 4.6619v0.1459c0 2.742-0.9688 3.8246-1.0074 3.7505-0.039-0.074 0.7324-1.3196 0.614-3.744-0.057-1.1862-0.3447-2.5029-0.9646-4.073-1.2015-3.0404-2.9546-5.6858-5.8198-9.5276-2.9717-3.9748-5.2099-6.6219-9.0786-11.49-2e-4 -4e-4 -0.077-0.096-0.077-0.097-3.4649-4.3622-6.9239-8.8767-10.189-13.673-7.0569-10.358-12.269-20.264-14.636-30.956-1.2094-5.4508-1.3677-10.175-0.5617-14.315 0.6681-3.4273 2.0267-5.9871 3.2626-7.6925 0.3969-0.5476 3.225-3.4816 3.4243-3.5578-1e-4 -7e-4 -1e-4 -7e-4 0 0 0.018 0.012-0.2619 0.3307-1.0094 1.1452-1.0046 1.0946-3.98 4.1693-5.024 10.252-0.6752 3.9266-0.4943 8.4707 0.782 13.97 0.6431 2.7659 1.5172 5.6332 2.6589 8.6155 3.005 7.8487 7.3078 15.06 11.966 21.928 3.338 4.9181 6.7736 9.4239 10.091 13.668 3.581 4.5802 6.1794 7.761 9.0412 11.72 2.7281 3.7655 4.5346 6.6212 5.6878 9.8129 0.5564 1.5384 0.8134 2.8927 0.8338 4.1177zm-23.485-98.616c-1.7704 2.2959-3.2134 2.6882-3.1393 2.5633 0.074-0.1249 1.6074-0.8631 3.0436-3.1371 0.6662-1.0513 1.2156-2.3747 1.545-4.0473 0.6201-3.1408 0.4131-6.3283-0.2676-10.882-0.6309-4.1746-1.4433-7.8687-2.5286-13.042-0.075-0.3554-0.1494-0.7121-0.2232-1.0696-1.1046-5.3188-2.1772-10.808-2.958-16.404-1.6946-12.11-2.0521-22.862 0.5569-33.099 1.2952-5.0972 3.2076-9.0976 5.7881-12.136 1.4869-1.7487 3.0713-2.9817 4.5552-3.8209 0.6121-0.3457 1.2035-0.6222 1.7524-0.8437 2.5621-1.034 4.6295-1.1675 3.8941-0.8988-0.3257 0.1191-2.5241 0.38-5.4025 2.157-1.38 0.8511-2.8776 2.0801-4.2966 3.8313-2.3677 2.918-4.1713 6.7622-5.4284 11.925-0.708 2.9163-1.2159 6.0595-1.4911 9.4735-0.628 7.7904 0.06 15.587 1.1217 23.272 0.7863 5.6758 1.8627 11.265 2.8825 16.364 1.0847 5.4187 1.9786 9.5837 2.6014 14.188 0.6077 4.441 0.7589 7.8289 0.02 11.096-0.3839 1.6944-1.0093 3.0693-1.7649 4.1553-0.086 0.1232-0.1731 0.2417-0.2609 0.3557zm-9.4536 0.4014c-0.022 0.044-0.044 0.088-0.066 0.1312-1.2696 2.4561-2.6392 2.9838-2.6394 2.8993 0-0.085 1.2662-0.8495 2.2842-3.0758 0.4993-1.0892 0.8525-2.399 1.0299-4.0887 0.3434-3.2785 0.017-6.4335-0.7153-11.196-0.6863-4.4274-1.5755-8.8142-2.5803-14.46 0-5e-4 -0.021-0.1217-0.022-0.1221-0.9772-5.5-1.8588-11.126-2.4327-16.904-1.2436-12.477-1.0726-23.636 1.8752-34.077 1.5015-5.3275 3.5625-9.5181 6.1852-12.761 2.1708-2.683 4.5409-4.3006 6.4072-5.2304 0.3977-0.1981 2.2142-0.8315 3.4973-1.2382 1.4912-0.4726 1.637-0.4713-0.2664 0.2235-1.3825 0.5047-5.3951 1.8444-9.1263 6.6767-2.4099 3.1189-4.3659 7.1648-5.8311 12.568-0.7359 2.7184-1.3227 5.6367-1.734 8.786-1.0826 8.289-0.7593 16.665 0.047 24.93 0.5797 5.9233 1.4452 11.523 2.3495 16.85 0.9895 5.8257 1.7541 9.7044 2.4388 14.64 0.6468 4.625 0.922 7.9954 0.4661 11.382-0.2191 1.631-0.6173 2.9602-1.1669 4.0665zm25.689-98.211c-2.6203 1.2384-4.0686 0.9261-3.946 0.8493 0.1226-0.076 1.8107-0.031 4.1257-1.4024 1.0718-0.633 2.1683-1.564 3.229-2.9101 1.9895-2.5225 3.277-5.4895 4.7251-9.8949 1.3059-3.9936 2.2646-7.8107 3.553-12.932-0.046 0.1849 0.3164-1.2552 0.2699-1.0703 1.3424-5.314 2.7536-10.801 4.4352-16.247 3.6459-11.824 7.7552-21.797 14.37-30.154 3.284-4.1551 6.6706-7.0534 10.282-8.8043 2.0792-1.0063 4.0378-1.5008 5.7442-1.6746 0.7033-0.074 1.3602-0.087 1.9552-0.07 2.7912 0.081 4.7227 0.7877 3.9502 0.7404-0.3509-0.021-2.4754-0.6647-5.8483-0.1897-1.6155 0.227-3.4927 0.7528-5.5107 1.7895-3.3674 1.7267-6.5894 4.5266-9.8662 8.7594-1.8491 2.392-3.6106 5.0711-5.2799 8.0948-3.8082 6.8986-6.4525 14.339-8.7772 21.828-1.7058 5.5037-3.1733 11.128-4.492 16.187-1.3968 5.3619-2.4863 9.6221-3.9997 14.014-1.4661 4.2767-2.8939 7.3966-5.05 9.981h-1e-4c-1.1199 1.3415-2.3071 2.2836-3.4751 2.9073-0.1327 0.07-0.2642 0.1365-0.3942 0.1979zm-8.5313-3.9222c-0.04 0.029-0.079 0.057-0.1181 0.086-2.2321 1.5953-3.6757 1.4344-3.6378 1.36 0.037-0.075 1.4986-0.1702 3.4039-1.6765 0.9327-0.736 1.8382-1.7363 2.7571-3.1554 1.7774-2.7467 2.9184-5.7236 4.3763-10.306 1.4705-4.6395 2.3865-8.2422 4.0359-14.153 1e-4 -4e-4 0.033-0.1192 0.033-0.1197 1.507-5.396 3.1219-10.884 5.0499-16.384 4.1669-11.902 8.9099-21.991 15.904-30.357 3.561-4.2635 7.1575-7.2625 10.888-9.1731 3.086-1.5794 5.9219-2.1057 8.0161-2.2055 0.9781-0.046 7.8151 0.6539 3.3852 0.3725-1.4769-0.094-5.7103-0.4806-11.105 2.4379-3.4854 1.8842-6.9256 4.7942-10.486 9.1443-1.7896 2.1887-3.5264 4.6186-5.2035 7.3309-4.4134 7.1373-7.611 14.92-10.386 22.79-1.9851 5.6373-3.6083 11.099-5.1079 16.308-1.6019 5.5674-2.7081 9.6614-4.2485 14.261-1.4774 4.4272-2.7585 7.569-4.6881 10.365-0.9303 1.3489-1.8846 2.3461-2.8702 3.0747zm65.509-78.869c-2.9119 0.092-4.1208-0.7806-3.9768-0.8021 0.1438-0.023 1.6809 0.701 4.365 0.3635 1.2419-0.1547 2.6259-0.5747 4.1423-1.393 2.8429-1.5326 5.2149-3.7583 8.2998-7.2396 2.7918-3.1606 5.1832-6.2866 8.3967-10.477-0.1022 0.1332 0.7738-1.008 0.6716-0.8747 3.3383-4.3433 6.7994-8.7985 10.501-13.102 8.0233-9.3347 15.773-16.75 25.17-21.626 4.6671-2.4257 8.9247-3.6569 12.905-3.747 2.2919-0.05 4.2617 0.3157 5.8696 0.8683 0.6628 0.2281 1.2602 0.487 1.788 0.7503 2.4507 1.223 3.94 2.6949 3.2413 2.3154-0.3011-0.1634-1.95-1.6373-5.1773-2.6093-1.5479-0.467-3.457-0.7709-5.7052-0.668-3.7488 0.1689-7.8168 1.3776-12.507 3.8755-2.6483 1.4129-5.3322 3.1269-8.0669 5.1963-6.242 4.7233-11.618 10.432-16.716 16.342-3.7473 4.3485-7.3085 8.9027-10.525 13.025-3.4059 4.3655-6.0929 7.8485-9.2331 11.294-3.0497 3.3563-5.6112 5.6678-8.6327 7.1913-1.5693 0.7907-3.0413 1.185-4.3682 1.2923-0.1504 0.014-0.2984 0.017-0.4427 0.024zm-6.2781-7.0449c-0.048 0.014-0.095 0.022-0.1432 0.031-2.6973 0.5708-3.9627-0.1605-3.8978-0.2136 0.064-0.053 1.4494 0.4481 3.8096-0.172 1.155-0.3024 2.391-0.8596 3.8063-1.7975 2.7375-1.8152 4.9804-4.1005 8.1488-7.73 3.2105-3.6862 5.4701-6.6113 9.3434-11.38 4e-4 -3e-4 0.078-0.096 0.079-0.097 3.5304-4.3447 7.1929-8.7192 11.154-12.972 8.5619-9.1979 16.965-16.473 26.747-21.22 4.9813-2.4201 9.4869-3.6656 13.657-3.8597 3.4506-0.1597 6.2332 0.5384 8.1652 1.3167 0.4136 0.1667 2.0867 1.1024 3.2409 1.7932 1.3557 0.8116 1.4179 0.9022-0.3434-0.051-1.2918-0.6993-4.9512-2.8121-11.046-2.3906-3.9354 0.2704-8.2621 1.4986-13.276 3.9967-2.5214 1.2578-5.0916 2.7596-7.7186 4.546-6.9031 4.6942-12.956 10.505-18.636 16.583-4.0656 4.3531-7.7258 8.7033-11.174 12.88-3.6878 4.4684-6.3255 7.7792-9.5799 11.396-3.1241 3.4801-5.5613 5.8614-8.4591 7.6615-1.3977 0.8689-2.6771 1.4038-3.8778 1.6782zm91.169-45.421c-2.6453-1.144-3.3697-2.4312-3.2316-2.3903 0.1382 0.041 1.2182 1.3318 3.7615 2.1604 1.1761 0.385 2.5884 0.5928 4.285 0.504 3.1864-0.1656 6.2209-1.14 10.456-2.916 3.8813-1.6346 7.2583-3.3366 12.002-5.6745 0.3263-0.1607 0.6537-0.3218 0.982-0.4827 4.8813-2.3937 9.9625-4.8139 15.239-6.9686 0.8279-0.3384 1.6494-0.6672 2.4643-0.9857 10.459-4.1144 20.152-6.6343 30.015-6.4934 5.2739 0.072 9.6168 1.0173 13.162 2.8331 2.0411 1.0472 3.5995 2.3083 4.75 3.5601 0.4742 0.5165 0.8761 1.0287 1.2147 1.5118 1.5709 2.2415 2.1807 4.2477 1.7462 3.5799-0.1861-0.2862-0.9346-2.3693-3.3084-4.7608-1.1387-1.1482-2.6731-2.3252-4.7009-3.3053-3.3776-1.6355-7.5429-2.511-12.869-2.5291-3.0087-0.01-6.1969 0.2374-9.5952 0.7829-6.9888 1.1225-13.733 3.3267-20.312 5.9345-0.7246 0.2846-1.4467 0.5734-2.1666 0.8658-5.35 2.1755-10.531 4.6231-15.218 6.8761-4.9886 2.3991-8.7949 4.2927-13.099 6.0252-4.147 1.6767-7.3888 2.6456-10.728 2.7267-1.7316 0.041-3.2117-0.2268-4.4441-0.6898-0.1397-0.053-0.2752-0.1078-0.4064-0.1645zm-2.6936-8.966c-0.048-0.011-0.095-0.02-0.1421-0.031-2.665-0.6172-3.4997-1.8008-3.4189-1.8217 0.08-0.021 1.1184 1.0063 3.5013 1.4379 1.1661 0.2123 2.5103 0.2305 4.1771-0.015 3.2336-0.4767 6.1935-1.5713 10.602-3.4684 4.717-2.0362 7.5079-3.4557 13.343-6.1423 4e-4 -2e-4 0.1126-0.051 0.113-0.053 5.0888-2.3413 10.358-4.6373 15.879-6.6661 1.2315-0.453 2.4514-0.8861 3.6597-1.298 10.542-3.5129 20.405-5.4801 30.236-5.0703 5.5675 0.2295 10.146 1.2838 13.913 3.1007 3.1174 1.5047 5.234 3.4474 6.5618 5.0526 0.2846 0.3441 1.3096 1.964 1.9952 3.1218 0.8055 1.3602 0.8164 1.4686-0.2774-0.2087-0.7776-1.1925-3.0273-4.8427-8.583-7.3697-3.5957-1.6369-8.0082-2.6218-13.639-2.7972-2.833-0.087-5.8314 0.022-9.016 0.3633-7.1963 0.771-14.224 2.6031-21.09 4.9104-1.1314 0.3877-2.2565 0.7872-3.3759 1.1957-5.6576 2.0671-10.91 4.3402-15.847 6.5634-5.4011 2.433-8.9653 4.1529-13.555 6.0461-4.3004 1.7793-7.4795 2.8772-10.847 3.2719-1.6214 0.1904-2.9951 0.1338-4.1901-0.1228zm101.44 1.0747c-1.7814-2.265-1.8044-3.7419-1.7024-3.6402 0.1016 0.1017 0.4358 1.7512 2.278 3.6902 0.851 0.8981 1.9946 1.753 3.5307 2.4815 2.8814 1.3682 6.0265 1.9559 10.606 2.3974 4.1671 0.3949 8.0307 0.4957 13.29 0.6522-0.1231 0 1.2182 0.037 1.0952 0.033 5.4404 0.1694 11.061 0.3837 16.71 0.8823 12.25 1.0761 22.843 3.0438 32.35 7.7911 4.7304 2.3579 8.2557 5.0773 10.704 8.2523 1.4079 1.8285 2.2904 3.6441 2.8077 5.2788 0.213 0.6741 0.3622 1.3135 0.4664 1.8995 0.4882 2.7478 0.1896 4.7858 0.079 4.0185-0.05-0.3479 0.1473-2.5599-1.0037-5.7643-0.5506-1.535-1.4473-3.2645-2.8722-5.027-2.3744-2.9412-5.7696-5.5204-10.574-7.8555-2.7143-1.3171-5.6909-2.4886-8.9832-3.4967-7.5106-2.2996-15.308-3.3411-23.072-4.0382-5.7175-0.511-11.464-0.749-16.66-0.9502-5.5107-0.2125-9.8373-0.3455-14.43-0.8541-4.4569-0.4866-7.7814-1.177-10.758-2.6922-1.5444-0.7868-2.7188-1.727-3.5821-2.7207-0.098-0.1128-0.1907-0.2256-0.2791-0.338zm1.9037-9.165c-0.037-0.032-0.074-0.064-0.1097-0.095-2.0487-1.8122-2.2185-3.251-2.1376-3.2308 0.081 0.02 0.5037 1.4179 2.3928 2.9327 0.9238 0.7421 2.0967 1.3984 3.6788 1.976 3.0652 1.1184 6.1973 1.5669 10.969 1.9856 4.9164 0.4258 8.4327 0.5251 14.623 0.8747 5e-4 0 0.1231 0.01 0.1236 0.01 5.5691 0.3159 11.252 0.7306 17.016 1.4585 12.462 1.5691 23.313 4.1276 32.92 9.2391 4.8988 2.6037 8.5692 5.5051 11.2 8.7615 2.176 2.6943 3.2696 5.3605 3.7941 7.3891 0.1117 0.4305 0.3564 2.3523 0.4896 3.6968 0.1538 1.5501 0.1254 1.7227-0.1643-0.3083-0.2092-1.4645-0.6933-5.6869-4.6508-10.364-2.555-3.0219-6.1061-5.7895-11.089-8.3746-2.5066-1.2991-5.2382-2.4963-8.2329-3.5755-7.8795-2.8395-16.14-4.3493-24.386-5.4061-5.9083-0.7551-11.565-1.1827-16.95-1.5308-5.7969-0.3743-9.9267-0.5588-14.77-1.0576-4.623-0.471-7.9476-1.0198-11.093-2.2742-1.516-0.6041-2.6967-1.3085-3.6249-2.1033zm90.419 47.257c-0.6816-2.835-0.074-4.1956-0.023-4.059 0.051 0.1365-0.3444 1.7884 0.5317 4.3504 0.4036 1.1858 1.0966 2.4573 2.2068 3.7783 2.0793 2.4763 4.7446 4.3535 8.79 6.6731 3.6648 2.0937 7.2382 3.8128 12.01 6.106-0.1975-0.095 1.1956 0.5751 0.998 0.4802 4.9548 2.3865 10.057 4.8676 15.061 7.6042 10.864 5.936 19.788 11.946 26.617 20.093 3.3942 4.0442 5.5354 7.9368 6.508 11.812 0.5583 2.2312 0.6408 4.2398 0.4614 5.9365-0.074 0.6995-0.1929 1.342-0.3313 1.9175-0.6472 2.6894-1.7369 4.4435-1.5297 3.6917 0.092-0.3348 1.1556-2.2732 1.3813-5.6516 0.1089-1.619-0.021-3.5546-0.6214-5.7319-0.9988-3.632-3.0771-7.344-6.5484-11.396-1.9624-2.2873-4.2247-4.5468-6.8448-6.7846-5.9795-5.107-12.729-9.1775-19.609-12.952-5.0543-2.7704-10.284-5.3355-14.992-7.6466-4.9868-2.4469-8.9693-4.3827-12.986-6.7617-3.9159-2.3112-6.7037-4.3571-8.8105-7.0107l-1e-4 -1e-4c-1.0936-1.3785-1.7791-2.7416-2.1537-4.0202-0.042-0.1451-0.081-0.2881-0.1135-0.4288zm5.6206-7.5828c-0.02-0.045-0.04-0.09-0.06-0.1339-1.1084-2.5252-0.65-3.9125-0.5848-3.8598 0.066 0.052-0.1436 1.5098 0.9445 3.695 0.5313 1.0694 1.3288 2.1666 2.5362 3.3622 2.3356 2.3117 5.0344 4.0463 9.2417 6.4106 4.2428 2.3781 7.6373 4.0283 13.088 6.8284 4e-4 3e-4 0.1105 0.057 0.111 0.057 4.9937 2.5669 10.05 5.2518 15.053 8.2454 10.826 6.473 19.735 13.138 26.497 21.673 3.4451 4.3441 5.6439 8.4688 6.75 12.5 0.9141 3.3345 0.8492 6.208 0.5193 8.2693-0.07 0.4384-0.6122 2.2884-1.027 3.5685-0.4809 1.4838-0.5698 1.6117-0.032-0.3464 0.3933-1.4191 1.6365-5.4651-0.115-11.325-1.1301-3.7853-3.2735-7.7391-6.8033-12.099-1.7765-2.1923-3.8004-4.3813-6.1138-6.5685-6.0791-5.747-13.06-10.446-20.216-14.745-5.1251-3.0761-10.156-5.7644-14.969-8.2858-5.1334-2.6889-8.9532-4.6148-13.153-7.0588-4.0521-2.3522-6.8841-4.2574-9.2378-6.7296-1.1361-1.1925-1.9206-2.337-2.4339-3.4569zm64.041 79.972c0.5107-2.8475 1.6064-3.8459 1.5979-3.7015-0.01 0.1444-1.0262 1.4919-1.2514 4.1682-0.1058 1.238 0.017 2.6674 0.4979 4.3067 0.9005 3.0753 2.5659 5.8268 5.2959 9.5418 2.4921 3.3801 4.9894 6.3162 8.3761 10.337-0.071-0.084 0.7745 0.9209 0.7037 0.8369 3.4937 4.1609 7.0581 8.4777 10.415 13.018 7.2721 9.8271 12.739 19.105 15.28 29.419 1.268 5.1305 1.4536 9.5959 0.5751 13.513-0.5075 2.2558-1.3491 4.0945-2.2877 5.533-0.3872 0.5929-0.7889 1.1139-1.1782 1.5657-1.7942 2.0825-3.6401 3.2045-3.0787 2.5998 0.2331-0.2511 2.0988-1.5054 3.8464-4.4227 0.8392-1.3994 1.606-3.1948 2.0517-5.42 0.7456-3.708 0.539-7.982-0.7922-13.15-0.754-2.9188-1.7979-5.9383-3.1799-9.081-3.1536-7.1707-7.4901-13.69-12.092-19.932-3.3942-4.6004-7.0207-9.0196-10.33-13.021-3.5102-4.243-6.2938-7.5453-8.9857-11.318-2.6149-3.6533-4.3239-6.6071-5.1784-9.8526l-1e-4 -1e-4c-0.4429-1.6847-0.5223-3.1949-0.3536-4.505 0.02-0.1487 0.042-0.2938 0.067-0.4349zm8.1449-4.6619v-0.1458c0-2.742 0.9688-3.8246 1.0073-3.7505 0.039 0.074-0.7324 1.3196-0.6139 3.744 0.057 1.1862 0.3446 2.5029 0.9647 4.073 1.2015 3.0404 2.9544 5.6858 5.8198 9.5276 2.9715 3.9748 5.2097 6.6219 9.0783 11.49 3e-4 4e-4 0.077 0.096 0.077 0.097 3.465 4.3623 6.924 8.8768 10.189 13.673 7.0569 10.358 12.269 20.264 14.636 30.956 1.2094 5.4508 1.3675 10.175 0.5616 14.315-0.6682 3.4273-2.0268 5.9871-3.2626 7.6925-0.2668 0.3683-1.589 1.773-2.5547 2.7375-1.1552 1.1538-1.212 1.1433 0.135-0.3244 1.0045-1.0945 3.9799-4.1693 5.0238-10.252 0.6752-3.9266 0.4945-8.4707-0.7818-13.97-0.6432-2.7659-1.5172-5.6332-2.659-8.6154-3.0049-7.8489-7.3077-15.06-11.966-21.928-3.338-4.9181-6.7735-9.4239-10.091-13.668-3.5811-4.5804-6.1795-7.7611-9.0412-11.72-2.7281-3.7656-4.5345-6.6213-5.6878-9.8129-0.5565-1.5384-0.8134-2.8928-0.8337-4.1177z"
             fill-rule="evenodd"
             stroke="#fff"
             stroke-linejoin="round"
             stroke-width=".61765"
             id="path6" />
          <g
             transform="matrix(2.2194,0,0,2.2194,-2963.1,-947.33)"
             style="white-space:pre"
             aria-label="FERRONNERIE"
             id="g30">
            <path
               d="m1295 446.41 13.288 8.5556-0.7945 1.2339-13.288-8.5556zm9.2289-0.15371 0.5695 0.36667-2.8111 4.3662-0.5696-0.36667zm-5.9289-4.9718 0.5885 0.37888-3.3367 5.1825-0.5885-0.37889zm6.4604 5.3141 1.2529 0.80667-0.1222 0.18983-0.2848-0.18333q-0.3796-0.24445-0.8165-0.14979-0.4559 0.0824-0.7003 0.46211l-0.038-0.0244zm-1.7465-1.1244 1.2529 0.80666-0.7089 1.101-0.038-0.0245q0.2254-0.39189 0.1308-0.82877-0.1137-0.4491-0.4933-0.69355l-0.2658-0.17111zm-4.1824-3.8474 1.2719 0.81889-0.1222 0.18983-0.2847-0.18333q-0.3797-0.24445-0.8288-0.1308-0.4559 0.0824-0.7003 0.4621l-0.057-0.0367zm-0.8732-0.56222 0.5505 0.35444-1.6999 2.1816q0.2689-0.41764 0.5053-0.90991 0.2486-0.51126 0.4293-0.9588t0.2148-0.66728zm8.1866 14.186 1.3858 0.89222-0.9778 1.5187-0.1898-0.12222t0.073-0.1139q0.086-0.13289 0.086-0.13289 0.3178-0.49357 0.1961-1.0553-0.1285-0.59291-0.6099-0.92967zm-10.517-6.7711-0.037 0.0569q-0.4936-0.31778-1.0675-0.17709-0.5929 0.12847-0.9107 0.62204 0 0-0.073 0.1139t-0.073 0.1139l-0.202-0.10324 0.9777-1.5187zm11.238 5.6511 0.037-0.057q0.5058 0.29879 1.0865 0.18931 0.5739-0.14069 0.8917-0.63426 0 0 0.073-0.1139t0.086-0.13289l0.1898 0.12222-0.9778 1.5187z"
               id="path8" />
            <path
               d="m1303.9 434.43 11.624 10.708-0.9944 1.0794-11.624-10.708zm15.239 5.7506 0.5148 0.47423-4.1762 4.5333-0.5148-0.47422zm-6.1209-4.3189 0.4981 0.45893-3.5184 3.8192-0.4982-0.45893zm-4.9881-5.9152 0.5148 0.47423-4.1763 4.5333-0.5147-0.47423zm9.8669 7.2172 1.8028 3.4413-2.5394 2.7565 0.036-1.072q0.8107-0.88009 1.0499-1.6728 0.2378-0.82464 0.061-1.6323-0.1769-0.80765-0.5632-1.6546zm-4.4139-0.87362 1.096 1.0096-0.153 0.16606-0.2491-0.22947q-0.3321-0.30595-0.7787-0.28764-0.4633 3e-3 -0.7692 0.33512l-0.033-0.0306zm-1.5277-1.4074 1.096 1.0096-0.8873 0.96312-0.033-0.0306q0.2893-0.3474 0.271-0.79404-0.035-0.46194-0.367-0.7679l-0.2325-0.21416zm-3.4603-4.5078 1.3284 1.2238-0.153 0.16606-0.2989-0.27536q-0.3985-0.36714-0.9409-0.34491-0.5589 7e-3 -0.958 0.40678l-0.033-0.0306zm-0.7639-0.70369 0.4816 0.44363-2.049 1.8576q0.3365-0.36532 0.6539-0.80974 0.3326-0.46103 0.5874-0.87094 0.2548-0.4099 0.3261-0.62054zm5.6317 15.38 1.2122 1.1167-1.2238 1.3284-0.166-0.15298t0.092-0.0996q0.1071-0.11624 0.1071-0.11624 0.3978-0.43174 0.3742-1.006-0.025-0.60616-0.4413-1.0205zm-9.1994-8.4749-0.046 0.0498q-0.4317-0.39773-1.0213-0.35759-0.6061 0.0249-1.0039 0.45659 0 0-0.092 0.0996t-0.092 0.0996l-0.1813-0.13637 1.2238-1.3284z"
               id="path10" />
            <path
               d="m1315.1 423.74 2.56-1.8923q0.817-0.60394 1.6451-0.85106 0.8462-0.26055 1.6357-0.14217 0.776 0.10022 1.4817 0.5612 0.7105 0.42941 1.301 1.2283 0.6442 0.87149 0.8172 1.979 0.1911 1.0941-0.1412 2.1259-0.3276 1.0002-1.1991 1.6444 0.4026-0.10106 1.061 0.0299 0.6449 0.11286 1.1857 0.27466 0 0 0.5044 0.18865 0.5092 0.15707 1.2481 0.39702 0.7571 0.22653 1.5007 0.4349 0.7437 0.20837 1.2307 0.29755 0.6584 0.13101 1.2497 0.17125 0.5913 0.0402 1.143-0.0869 0.57-0.14054 1.0965-0.52975l0.1342 0.18156-0.9985 0.73815q-0.8352 0.61736-1.6404 0.81948-0.787 0.18871-1.4731 0.13427-0.6994-0.0726-1.2449-0.20282-0.1081-0.0324-0.6173-0.18943-0.491-0.17049-1.1849-0.38755-0.6892-0.24863-1.3649-0.47911-0.6758-0.23048-1.1534-0.38282-0.491-0.17049-0.5676-0.19811-0.6805-0.1989-1.3799-0.2715t-1.1896 0.28977l-0.1342-0.18156t0.2857-0.18315q0.2905-0.21474 0.6765-0.52815 0.4586-0.3671 0.9275-0.91024t0.6639-1.3049q0.1949-0.7618-0.1548-1.7667-0.093-0.23997-0.2716-0.55731-0.1919-0.33549-0.4247-0.61257-0.9308-1.2212-2.085-1.4911-1.1494-0.30151-2.2064 0.39559-0.5352 0.33948-1.0664 0.76026-0.5265 0.3892-0.8897 0.65762-0.3631 0.26842-0.3631 0.26842-0.013-0.0182-0.1618-0.10499-0.1437-0.1184-0.2921-0.20523-0.1437-0.11841-0.1437-0.11841zm0.236-0.17447 9.3947 12.709-1.1802 0.87236-9.3946-12.709zm7.2893 12.216 0.9797 1.3254-1.4525 1.0737-0.1342-0.18156t0.1089-0.0805q0.1271-0.0939 0.1271-0.0939 0.4721-0.34895 0.5573-0.91733 0.09-0.59996-0.2408-1.0854zm-7.4352-10.058-0.055 0.0403q-0.3671-0.45863-0.9536-0.53044-0.5818-0.10339-1.0539 0.24555 0 0-0.1271 0.094-0.1089 0.0805-0.1089 0.0805l-0.1342-0.18156 1.4525-1.0737zm8.5064 9.2665 0.054-0.0403q0.349 0.47206 0.9489 0.56202 0.5866 0.0718 1.0586-0.27713 0 0 0.109-0.0805 0.1089-0.0805 0.1089-0.0805l0.1342 0.18156-1.4343 1.0602z"
               id="path12" />
            <path
               d="m1330.1 414.17 2.8832-1.3496q0.9202-0.43074 1.7808-0.5095 0.881-0.0883 1.6315 0.18357 0.7409 0.25146 1.3418 0.84271 0.6117 0.56124 1.0329 1.461 0.4594 0.98152 0.4103 2.1014-0.029 1.1103-0.5582 2.0562-0.5186 0.91584-1.5001 1.3753 0.4147-0.0196 1.0342 0.23884 0.61 0.23798 1.1081 0.50336 0 0 0.4573 0.28453 0.4682 0.25451 1.1451 0.63562 0.6975 0.37155 1.3853 0.72264 0.6879 0.35109 1.1478 0.53468 0.6195 0.25843 1.1912 0.41461t1.1377 0.14051q0.5865-0.0252 1.1795-0.30284l0.096 0.20449-1.1246 0.52646q-0.9406 0.44031-1.7699 0.47948-0.8088 0.0296-1.4706-0.15921-0.6713-0.20926-1.1803-0.44462-0.1-0.0531-0.5678-0.30759-0.4477-0.26408-1.0851-0.61387-0.6265-0.37981-1.2434-0.73917-0.617-0.35936-1.0551-0.60299-0.4477-0.26409-0.5173-0.30629-0.6278-0.32934-1.2992-0.5386-0.6713-0.20925-1.2234 0.0492l-0.096-0.20448t0.3163-0.12314q0.3272-0.15315 0.7675-0.38418 0.522-0.26932 1.0889-0.70919t0.9085-1.1482q0.3415-0.70831 0.197-1.7625-0.044-0.25365-0.1562-0.59996-0.1218-0.36677-0.2954-0.68437-0.6714-1.3809-1.7495-1.8734-1.0672-0.5225-2.2411-0.0478-0.5917 0.22712-1.1955 0.53473-0.593 0.27759-1.002 0.46903t-0.409 0.19144q-0.01-0.0205-0.1379-0.13487-0.1175-0.14444-0.2458-0.25886-0.1175-0.14445-0.1175-0.14445zm0.2658-0.12443 6.7004 14.314-1.3291 0.62218-6.7004-14.314zm4.7339 13.415 0.6988 1.4927-1.6359 0.76576-0.096-0.20449t0.1227-0.0574q0.1431-0.067 0.1431-0.067 0.5317-0.24888 0.7274-0.78924 0.2067-0.57039-0.022-1.1116zm-5.3029-11.328-0.061 0.0287q-0.2694-0.52208-0.8302-0.70828-0.5499-0.21622-1.0816 0.0326 0 0-0.1431 0.067-0.1227 0.0574-0.1227 0.0574l-0.096-0.20449 1.6358-0.76576zm6.5093 10.764 0.061-0.0287q0.2489 0.53166 0.8193 0.73831 0.5608 0.1862 1.0924-0.0627 0 0 0.1227-0.0574t0.1227-0.0574l0.096 0.20448-1.6154 0.75619z"
               id="path14" />
            <path
               d="m1351.9 406.19q2.3608-0.51238 4.3683 0.1147 2.0027 0.60501 3.3882 2.1988 1.4077 1.589 1.9296 3.994 0.522 2.405-0.1003 4.4345-0.6002 2.0248-2.1672 3.4276-1.5717 1.3808-3.9325 1.8932-2.3388 0.50759-4.3415-0.0974-2.0075-0.62707-3.4151-2.2161-1.3855-1.5938-1.9075-3.9988t0.078-4.4297q0.6222-2.0295 2.194-3.4103 1.5669-1.4028 3.9057-1.9104zm3.3424 15.401q1.8755-0.40703 3.0644-1.6354 1.211-1.2332 1.6241-3.0556 0.4351-1.8272-0.044-4.0336-0.4789-2.2064-1.6323-3.6888-1.1314-1.4872-2.7447-2.1074-1.5911-0.62501-3.4666-0.21798-1.8534 0.40224-3.0643 1.6354-1.189 1.2284-1.6241 3.0556-0.4131 1.8224 0.066 4.0288 0.4789 2.2064 1.6103 3.6936 1.1534 1.4824 2.7446 2.1074 1.6132 0.62023 3.4666 0.21798z"
               id="path16" />
            <path
               d="m1367.5 404.04 12.514 14.54 0.099 2.4674-12.515-14.517zm-0.5693 14.529-0.068 1.6016-1.8723-0.0792 0.01-0.22558t0.2031 9e-3q0.203 9e-3 0.2255 0.01 0.564 0.0238 0.9872-0.36502 0.4232-0.38886 0.447-0.9528zm0.97 0.041q-0.024 0.56394 0.365 0.98715 0.3889 0.42321 0.9528 0.44706 0.023 9.6e-4 0.2256 0.01 0.203 9e-3 0.203 9e-3l-0.01 0.22557-1.8723-0.0792 0.068-1.6016zm-0.4007-14.57 0.9391 1.3052-0.6061 14.866-1.0377-0.0439 0.5629-13.309q0.049-1.1504-0.029-1.9898-0.055-0.83845-0.055-0.83845zm13.295 0.90123-0.5591 13.219q-0.03 0.72184-0.014 1.4005 0.017 0.65608 0.044 1.0866 0.051 0.4089 0.051 0.4089l-0.203-9e-3 -0.9645-1.2385 0.6306-14.911zm1.8046 0.0763-0.01 0.22558t-0.203-9e-3 -0.203-9e-3q-0.5639-0.0238-0.9871 0.36501-0.4223 0.36631-0.4697 0.95186l-0.068-3e-3 0.068-1.6016zm-4.6469-0.19652 1.8723 0.0792-0.068 1.6016-0.045-2e-3q0-0.58745-0.3875-0.9881-0.3663-0.42226-0.9528-0.44706 0 0-0.2031-9e-3 -0.203-9e-3 -0.2255-0.01z"
               id="path18" />
            <path
               d="m1390.3 406.3 8.362 17.266-0.5377 2.4101-8.3687-17.244zm-4.2803 13.896-0.4767 1.5305-1.7892-0.55723 0.067-0.21556t0.194 0.0604q0.1941 0.0604 0.2156 0.0671 0.5389 0.16783 1.0478-0.0993 0.5088-0.26718 0.6767-0.80609zm0.9269 0.28868q-0.1678 0.53892 0.099 1.0478 0.2672 0.50886 0.8061 0.6767 0.022 7e-3 0.2156 0.0671 0.194 0.0604 0.194 0.0604l-0.067 0.21557-1.7892-0.55722 0.4766-1.5305zm3.3534-14.185 0.5726 1.5026-4.4027 14.212-0.9916-0.30882 3.961-12.718q0.3424-1.0994 0.483-1.9306 0.1622-0.82444 0.1622-0.82444zm12.618 4.2843-3.9341 12.632q-0.2148 0.68982-0.3731 1.3499-0.1516 0.63857-0.236 1.0616-0.056 0.40816-0.056 0.40816l-0.194-0.0604-0.6143-1.4446 4.4377-14.249zm1.7245 0.53709-0.067 0.21556t-0.194-0.0604-0.194-0.0604q-0.5389-0.16784-1.0478 0.0993-0.5021 0.24562-0.6982 0.79938l-0.065-0.0201 0.4767-1.5305zm-4.4406-1.383 1.7892 0.55722-0.4767 1.5305-0.043-0.0134q0.153-0.56718-0.1209-1.0545-0.2456-0.50215-0.8061-0.6767 0 0-0.194-0.0604t-0.2155-0.0671z"
               id="path20" />
            <path
               d="m1412.4 415.29-7.8223 13.733-1.2752-0.72636 7.8223-13.733zm-2.1789 16.142-0.3465 0.60817-5.3558-3.0507 0.3464-0.60817zm2.8329-6.935-0.3353 0.58855-4.5122-2.5702 0.3353-0.58855zm4.643-6.1897-0.3464 0.60817-5.3558-3.0507 0.3464-0.60817zm-4.8153 11.236-2.9482 2.53-3.2567-1.855 1.0527-0.20587q1.0398 0.59226 1.866 0.64714 0.857 0.0464 1.6042-0.30746 0.7473-0.35388 1.4858-0.92058zm-0.1406-4.4973-0.7375 1.2948-0.1962-0.11175 0.1676-0.29427q0.2235-0.39237 0.1053-0.82348-0.1071-0.45072-0.4994-0.67422l0.022-0.0392zm1.0281-1.8049-0.7376 1.2948-1.1378-0.64814 0.022-0.0392q0.4036 0.20388 0.8347 0.0857 0.4422-0.13783 0.6657-0.5302l0.1565-0.27465zm3.6149-4.3848-0.894 1.5695-0.1962-0.11175 0.2012-0.35313q0.2682-0.47084 0.1246-0.99432-0.1323-0.54311-0.6116-0.84209l0.022-0.0392zm0.514-0.90245-0.324 0.56894-2.2705-1.5791q0.4316 0.24585 0.9359 0.45519 0.524 0.22051 0.9807 0.37671 0.4567 0.15619 0.6779 0.17829zm-13.721 8.9438-0.8158 1.4321-1.5694-0.89398 0.1117-0.19618t0.1177 0.067q0.1374 0.0782 0.1374 0.0782 0.51 0.29054 1.0643 0.13856 0.5851-0.16043 0.8952-0.65933zm6.1908-10.869-0.059-0.0335q0.2905-0.51008 0.1189-1.0755-0.1604-0.58507-0.6705-0.87561 0 0-0.1177-0.067-0.1177-0.0671-0.1177-0.0671l0.092-0.20736 1.5695 0.89398z"
               id="path22" />
            <path
               d="m1425.4 423.79 2.4228 2.065q0.7732 0.65906 1.2014 1.4097 0.4454 0.76527 0.5088 1.561 0.078 0.77854-0.2111 1.5703-0.2574 0.78927-0.9018 1.5453-0.703 0.82479-1.7426 1.244-1.0225 0.43385-2.1027 0.3438-1.0484-0.0926-1.8732-0.79559 0.1896 0.36926 0.2111 1.0402 0.036 0.65376 9e-4 1.2171 0 0-0.07 0.53406-0.038 0.53151-0.1042 1.3056-0.049 0.78868-0.084 1.5602-0.035 0.7715-0.011 1.2661 0.022 0.67094 0.1162 1.256 0.095 0.58503 0.3434 1.0937 0.266 0.52333 0.7643 0.94806l-0.1465 0.17183-0.9451-0.80552q-0.7904-0.6737-1.1696-1.4122-0.362-0.72387-0.4643-1.4044-0.088-0.69769-0.084-1.2585 0.01-0.11267 0.045-0.64418 0.055-0.51688 0.1092-1.2419 0.086-0.72757 0.1576-1.438 0.072-0.71038 0.1117-1.2101 0.055-0.51687 0.064-0.59771 0.04-0.70785-0.048-1.4055-0.088-0.6977-0.5516-1.0931l0.1465-0.17183t0.2431 0.23687q0.2749 0.23433 0.6676 0.53936 0.4614 0.3636 1.0966 0.69734 0.6352 0.33373 1.4213 0.35114 0.7862 0.0174 1.6858-0.55079 0.2126-0.14508 0.4813-0.39072 0.2834-0.26282 0.5005-0.5524 0.9788-1.1831 0.9804-2.3684 0.033-1.1878-0.8849-2.0595-0.4519-0.44445-0.982-0.86664-0.4983-0.42472-0.842-0.71764-0.3436-0.29291-0.3436-0.29291 0.015-0.0172 0.066-0.1814 0.083-0.16676 0.1338-0.33098 0.083-0.16676 0.083-0.16676zm0.2233 0.1904-10.252 12.028-1.1169-0.95197 10.252-12.028zm-10.248 9.8658-1.0691 1.2544-1.3747-1.1716 0.1465-0.17184t0.1031 0.0879q0.1203 0.10252 0.1203 0.10252 0.4467 0.38079 1.0196 0.33512 0.6048-0.0482 1.0028-0.48033zm8.1137-9.5194-0.052-0.0439q0.3636-0.4614 0.3007-1.049-0.031-0.5901-0.4777-0.97089 0 0-0.1203-0.10252-0.1031-0.0879-0.1031-0.0879l0.1464-0.17184 1.3747 1.1717zm-7.0999 10.384 0.052 0.0439q-0.3808 0.44676-0.3326 1.0515 0.063 0.58757 0.5096 0.96836 0 0 0.1031 0.0879t0.1031 0.0879l-0.1465 0.17183-1.3574-1.157z"
               id="path24" />
            <path
               d="m1437.7 435.88-11.977 10.312-0.9575-1.1121 11.976-10.312zm-11.641 8.1761-1.2489 1.0754-1.1786-1.3687 0.1711-0.14732t0.088 0.10265q0.1031 0.11977 0.1031 0.11977 0.383 0.44484 0.9562 0.48764 0.605 0.0452 1.0645-0.32075zm9.4786-8.1614-0.044-0.0513q0.4301-0.40013 0.4582-0.99039 0.06-0.58787-0.3231-1.0327 0 0-0.1032-0.11977-0.088-0.10265-0.088-0.10265l0.171-0.14732 1.1786 1.3688zm-8.6094 9.1709 0.044 0.0513q-0.4301 0.40014-0.49 0.98801-0.028 0.59025 0.355 1.0351 0 0 0.088 0.10266 0.088 0.10265 0.1031 0.11976l-0.1711 0.14732-1.1786-1.3687zm9.4786-8.1614 1.249-1.0754 1.1785 1.3687-0.1711 0.14732q-0.015-0.0171-0.1031-0.11976-0.088-0.10266-0.088-0.10266-0.383-0.44484-0.988-0.49001-0.5731-0.0428-1.0327 0.32312z"
               id="path26" />
            <path
               d="m1443.7 443.76-13.322 8.5037-0.7896-1.237 13.322-8.5037zm-9.4517 13.266-0.59 0.37659-3.3164-5.1955 0.59-0.3766zm5.7388-4.8151-0.5709 0.36444-2.7941-4.3771 0.571-0.36444zm6.9929-3.312-0.5899 0.3766-3.3165-5.1955 0.59-0.37659zm-9.4976 7.6966-3.7876 0.8642-2.0166-3.1591 1.0273 0.30852q0.6438 1.0086 1.3492 1.4423 0.7366 0.44053 1.5626 0.47574 0.8261 0.0352 1.7436-0.12193zm1.9719-4.0444-1.2561 0.80178-0.1215-0.19031 0.2855-0.18223q0.3806-0.24296 0.477-0.67947 0.1154-0.44866-0.1276-0.82928l0.038-0.0243zm1.7508-1.1176-1.256 0.80177-0.7046-1.1038 0.038-0.0243q0.262 0.36847 0.6985 0.46483 0.4556 0.0842 0.8362-0.15875l0.2664-0.17007zm5.2421-2.1944-1.5225 0.97186-0.1215-0.19031 0.3426-0.21867q0.4567-0.29156 0.5737-0.8216 0.1361-0.5422-0.1486-1.0301l0.038-0.0243zm0.8754-0.55881-0.5519 0.35229-1.2727-2.4554q0.2672 0.41868 0.6159 0.83898 0.3608 0.43933 0.692 0.79039t0.5167 0.47375zm-16.308 1.5173-1.3892 0.88682-0.9719-1.5225 0.1903-0.12148t0.073 0.11418q0.085 0.13322 0.085 0.13322 0.3159 0.4948 0.8771 0.6187 0.5924 0.13077 1.0994-0.16605zm10.543-6.7301-0.037-0.0571q0.4949-0.31585 0.6066-0.8961 0.1308-0.59241-0.1851-1.0872 0 0-0.073-0.11419t-0.073-0.11419l0.1782-0.14051 0.9719 1.5225z"
               id="path28" />
          </g>
          <g
             transform="matrix(2.2194,0,0,2.2194,-2963.1,-947.33)"
             style="white-space:pre"
             aria-label="MÉTALLERIE"
             id="g52">
            <path
               d="m1328.3 552.53-0.8374 1.2727-12.47 5.9921t-0.3855 0.17689q-0.3683 0.19145-0.8558 0.48914-0.4729 0.28043-0.8304 0.59914l-0.1726-0.14559 0.6757-1.291zm-19.945 2.1077-1.0628 1.2597-1.9155-1.616 0.1456-0.17257q0.017 0.0146 0.138 0.11647 0.1381 0.11648 0.1381 0.11648 0.4659 0.39309 1.0613 0.42272 0.6098 0.0124 1.1156-0.44708zm0.2675 0.69832q-0.015 0.0172-0.029 0.0345-0.015 0.0173-0.044 0.0518-0.233 0.27611-0.247 0.67785 0.018 0.39904 0.294 0.63199l0.2588 0.21839-0.131 0.1553-1.0527-0.8881 0.8299-0.98363zm9.9794-10.988 0.1726 0.14559-0.5138 1.3093-10.554 10.444-0.9318-0.78619zm0.1726 0.14559-4.1004 14.944-1.9256 1.4771 4.0675-14.765zm9.681 8.1676-8.9111 13.573-1.346-1.1356 7.8736-11.258 2.2282-1.3105zm-8.366 11.877 0.3624 0.30574q-0.3505 0.59049-0.2356 1.1896 0.1294 0.58184 0.5781 0.96038 0 0 0.138 0.11647 0.1381 0.11647 0.1381 0.11647l-0.1456 0.17257-1.8982-1.6015zm-1.1476-0.49552 0.1208 0.10191-0.8298 0.98363-1.0527-0.88811 0.1311-0.15531 0.2588 0.21839q0.2934 0.2475 0.6725 0.18332 0.3936-0.0814 0.6266-0.35755 0.029-0.0345 0.044-0.0518t0.029-0.0345z"
               id="path32" />
            <path
               d="m1333.8 556.12-7.5427 13.888-1.2897-0.7004 7.5427-13.888zm-1.8517 16.183-0.3341 0.61505-5.4165-2.9416 0.3341-0.61506zm2.6919-6.9909-0.3233 0.59522-4.5633-2.4783 0.3232-0.59522zm4.5167-6.2825-0.334 0.61506-5.4165-2.9416 0.334-0.61506zm-4.5868 11.332-2.8963 2.5892-3.2936-1.7887 1.0483-0.22715q1.0516 0.57109 1.8787 0.60923 0.8578 0.0291 1.5977-0.33987 0.7399-0.36894 1.4668-0.95048zm-0.2316-4.4935-0.7112 1.3095-0.1984-0.10775 0.1616-0.29761q0.2155-0.39681 0.089-0.82544-0.1161-0.44846-0.5129-0.66396l0.022-0.0397zm0.9913-1.8253-0.7112 1.3095-1.1507-0.62497 0.022-0.0397q0.4076 0.19566 0.8362 0.0688 0.4394-0.14676 0.655-0.54357l0.1508-0.27777zm3.5254-4.4571-0.862 1.5872-0.1984-0.10775 0.194-0.35714q0.2586-0.47617 0.1045-0.99664-0.1434-0.54031-0.6286-0.82954l0.022-0.0397zm0.4957-0.91267-0.3125 0.57538-2.302-1.5328q0.4365 0.23705 0.945 0.43614 0.5283 0.20986 0.9881 0.35678 0.4597 0.14692 0.6814 0.16453zm-13.537 9.2198-0.7866 1.4484-1.5872-0.86203 0.1078-0.1984t0.119 0.0647q0.1389 0.0754 0.1389 0.0754 0.5158 0.28015 1.0669 0.11698 0.5817-0.17224 0.8817-0.67732zm5.9696-10.992-0.06-0.0323q0.2802-0.51585 0.097-1.0777-0.1723-0.58171-0.6881-0.86186 0 0-0.1191-0.0647-0.119-0.0646-0.119-0.0646l0.088-0.20918 1.5873 0.86202zm4.5674-1.2192q0.6645-0.23005 1.3182-0.44026 0.6645-0.23005 1.3074-0.42043 0.6735-0.19943 1.3057-0.36996 0.089 0.35661 0.1671 0.73307 0.078 0.37645 0.075 0.76027-0.6974 7e-3 -1.3947 0.0133-0.6973 7e-3 -1.3839-6e-3 -0.6559-0.0222-1.3317-0.0552z"
               id="path34" />
            <path
               d="m1347.1 562.19-5.2913 14.82-1.3821-0.49345 5.2913-14.82zm5.495 1.866-0.2277 0.6379-12.311-4.3955 0.2277-0.63789zm-0.2049 0.57411-0.615 1.7223-0.205-0.0972 0.1291-0.36147q0.1898-0.53158-0.064-1.0297-0.2324-0.49053-0.7352-0.69399l0.023-0.0638zm0.3416-0.95685-0.2202 0.61664-2.5106-1.1601q0.4678 0.16701 1.0009 0.28542 0.5544 0.126 1.0313 0.20037 0.4769 0.0744 0.6986 0.0576zm-11.687 11.314-0.5542 1.5522-1.7011-0.60732 0.076-0.21264t0.1276 0.0456q0.1488 0.0531 0.1488 0.0531 0.5529 0.19738 1.0723-0.0487 0.5482-0.25976 0.7669-0.80502zm1.2545 0.4479 0.064 0.0228q-0.1761 0.56043 0.062 1.1011 0.2673 0.52698 0.8202 0.72436 0 0 0.1275 0.0455 0.1489 0.0531 0.1489 0.0531l-0.076 0.21263-1.7011-0.60732zm-0.7533-14.677-0.023 0.0638q-0.5391-0.16852-1.0297 0.0639-0.4905 0.23241-0.6803 0.76399l-0.129 0.36148-0.2203-0.0547 0.615-1.7223zm-1.1255-1.4807q0.1822 0.16097 0.5771 0.39785 0.4162 0.24448 0.925 0.49806t0.9553 0.413l-2.6776-0.69228z"
               id="path36" />
            <path
               d="m1357.8 564.47 3.8466 16.893-1.8907-0.32867-2.7682-14.529zm-7.2611 13.427q-0.2331 0.41782-0.176 0.74857 0.057 0.33076 0.2709 0.55124 0.2398 0.20211 0.5068 0.24851l0.2002 0.0348-0.039 0.22245-4.4711-0.77721 0.039-0.22244t0.1112 0.0193q0.089 0.0155 0.089 0.0155 0.5116 0.0889 1.0996-0.12969 0.6141-0.23699 1.1015-0.93143zm7.2611-13.427-0.071 1.5919-8.0619 13.288-1.3346-0.23201 8.0455-12.535t0.1576-0.2476q0.1837-0.26597 0.409-0.6393 0.2476-0.36946 0.4245-0.72828 0.1992-0.35495 0.2302-0.53291zm1.4312 10.355-0.116 0.66732-6.9625-1.2103 0.116-0.66732zm0.2276 4.6228 1.824 0.31707q0.2022 0.81431 0.7004 1.2446 0.5019 0.40809 1.0135 0.49702 0 0 0.089 0.0155t0.089 0.0155l-0.039 0.22245-5.0049-0.87001 0.039-0.22245 0.2002 0.0348q0.4227 0.0735 0.8182-0.22444 0.3994-0.32015 0.2707-1.03z"
               id="path38" />
            <path
               d="m1368.5 565.85-0.035 15.804-1.4675-3e-3 0.035-15.804zm6.0622 15.118v0.69991l-6.1637-0.0138v-0.69991zm1.3838-2.9546-1.3176 3.6547-3.7479-8e-3 0.8143-0.6981q1.1966 3e-3 1.9425-0.3569 0.7685-0.38211 1.2442-1.0584 0.4756-0.67627 0.8388-1.5334zm-8.8775 1.9896v1.6482l-1.8062-4e-3 5e-4 -0.22577t0.1355 3e-4q0.158 3.5e-4 0.158 3.5e-4 0.587 1e-3 0.9943-0.40418 0.43-0.42802 0.4539-1.015zm0.028-12.508-0.068-1.5e-4q-0.021-0.58707-0.4493-0.99443-0.4055-0.42988-0.9925-0.43119 0 0-0.158-3.6e-4 -0.1355-3e-4 -0.1355-3e-4l5e-4 -0.22578 1.8062 4e-3zm1.332 3e-3v-1.6482l1.8062 4e-3 -5e-4 0.22578q-0.023-5e-5 -0.158-3.5e-4 -0.1355-3.1e-4 -0.1355-3.1e-4 -0.587-1e-3 -1.0169 0.42671-0.4073 0.40549-0.4312 0.99246z"
               id="path40" />
            <path
               d="m1379.3 565.3 2.3125 15.634-1.4518 0.21473-2.3125-15.634zm8.2404 14.05 0.1025 0.69238-6.0974 0.90185-0.1025-0.69238zm0.9297-3.1274-0.7602 3.8098-3.7076 0.54838 0.7016-0.81131q1.1838-0.17508 1.868-0.64146 0.7032-0.49201 1.0731-1.2314 0.3699-0.73942 0.6018-1.641zm-8.4836 3.2861 0.2412 1.6304-1.7868 0.26428-0.033-0.22335t0.134-0.0198q0.1563-0.0231 0.1563-0.0231 0.5807-0.0859 0.9233-0.54738 0.3616-0.48713 0.298-1.0711zm-1.8301-12.373-0.067 0.01q-0.1082-0.5774-0.5921-0.91666-0.4647-0.3649-1.0454-0.27901 0 0-0.1564 0.0231-0.134 0.0198-0.134 0.0198l-0.033-0.22335 1.7867-0.26428zm1.3178-0.19491-0.2412-1.6304 1.7868-0.26428 0.033 0.22335q-0.022 3e-3 -0.1563 0.0231-0.134 0.0198-0.134 0.0198-0.5807 0.0859-0.9423 0.57301-0.3426 0.46149-0.279 1.0455z"
               id="path42" />
            <path
               d="m1390 563.16 4.6596 15.102-1.4023 0.43268-4.6597-15.102zm10.278 12.636 0.2063 0.6688-5.8897 1.8173-0.2064-0.6688zm-3.1177-6.8117 0.1997 0.64723-4.9621 1.531-0.1997-0.64722zm-1.3356-7.6215 0.2063 0.6688-5.8897 1.8172-0.2064-0.6688zm4.8973 11.201-0.173 3.8811-3.5813 1.105 0.5703-0.90844q1.1435-0.3528 1.7489-0.91765 0.6204-0.59309 0.8737-1.3801 0.2534-0.78702 0.3456-1.7133zm-3.3754-2.9753 0.4394 1.4239-0.2158 0.0666-0.1-0.32362q-0.1332-0.43148-0.5284-0.64033-0.4019-0.23042-0.8334-0.0973l-0.013-0.0431zm-0.6124-1.9848 0.4394 1.4239-1.2513 0.38609-0.013-0.0431q0.4249-0.15471 0.6337-0.54994 0.2022-0.41681 0.069-0.84829l-0.093-0.30204zm-0.7231-5.6366 0.5325 1.7259-0.2157 0.0666-0.1199-0.38834q-0.1597-0.51778-0.6396-0.77138-0.4866-0.27517-1.0326-0.13033l-0.013-0.0432zm-0.3062-0.99242 0.193 0.62565-2.7053 0.57479q0.4747-0.14644 0.9725-0.37092 0.5194-0.23114 0.9458-0.45723 0.4264-0.22608 0.594-0.37229zm-2.8691 16.125 0.4859 1.5749-1.726 0.53253-0.066-0.21574t0.1294-0.0399q0.151-0.0466 0.151-0.0466 0.561-0.17307 0.8295-0.68122 0.2834-0.53639 0.1319-1.104zm-3.6878-11.952-0.065 0.02q-0.1731-0.56093-0.7028-0.82279-0.5364-0.28343-1.0974-0.11036 0 0-0.1294 0.0399t-0.1294 0.0399l-0.088-0.20909 1.726-0.53253z"
               id="path44" />
            <path
               d="m1400.1 559.51 2.8449-1.4286q0.908-0.45596 1.766-0.55842 0.8783-0.1126 1.636 0.1385 0.7476 0.23093 1.3645 0.80539 0.627 0.54415 1.0728 1.4319 0.4864 0.96847 0.4681 2.0893 0 1.1107-0.5012 2.0708-0.4931 0.92979-1.4616 1.4162 0.4139-0.031 1.0404 0.21022 0.6163 0.22106 1.1216 0.47261 0 0 0.4649 0.27181 0.475 0.2415 1.1622 0.6038 0.7074 0.35216 1.4047 0.68415t1.1621 0.50283q0.6264 0.24124 1.2022 0.38159 0.5758 0.14036 1.1411 0.10908 0.5856-0.0414 1.1707-0.33525l0.1013 0.20177-1.1097 0.55728q-0.9281 0.46608-1.7559 0.52811-0.8077 0.0519-1.4744-0.11859-0.6769-0.19067-1.1922-0.41191-0.1011-0.0503-0.576-0.29181-0.4549-0.25163-1.1017-0.58371-0.6367-0.36238-1.2633-0.70459t-1.0713-0.57367q-0.4548-0.25163-0.5256-0.2919-0.6366-0.3119-1.3135-0.50256-0.6768-0.19067-1.2216 0.0829l-0.1013-0.20176t0.3128-0.13181q0.3228-0.16212 0.7566-0.4052 0.5144-0.28362 1.069-0.73896 0.5545-0.45534 0.8764-1.1728 0.3218-0.71746 0.1483-1.7673-0.051-0.25233-0.1727-0.59542-0.1319-0.36327-0.3141-0.67596-0.7092-1.3619-1.8005-1.8244-1.0813-0.49287-2.2415 0.014-0.5853 0.24335-1.1804 0.5675-0.5851 0.29383-0.9887 0.49648-0.4035 0.20264-0.4035 0.20264-0.01-0.0202-0.1416-0.13101-0.1214-0.14115-0.2529-0.25199-0.1214-0.14115-0.1214-0.14115zm0.2623-0.13172 7.0926 14.124-1.3114 0.6586-7.0927-14.124zm5.102 13.279 0.7397 1.4729-1.6141 0.81058-0.1014-0.20176t0.1211-0.0608q0.1412-0.0709 0.1412-0.0709 0.5246-0.26344 0.7054-0.809 0.1909-0.57587-0.052-1.1106zm-5.6133-11.178-0.061 0.0304q-0.2836-0.51445-0.8493-0.68512-0.5557-0.20097-1.0803 0.0625 0 0-0.1413 0.0709-0.121 0.0608-0.121 0.0608l-0.1013-0.20177 1.6141-0.81058zm6.8038 10.58 0.061-0.0304q0.2634 0.52459 0.8393 0.71544 0.5657 0.17066 1.0903-0.0928 0 0 0.1211-0.0608 0.121-0.0608 0.121-0.0608l0.1014 0.20177-1.594 0.80045z"
               id="path46" />
            <path
               d="m1412 552.7 8.9502 13.026-1.2096 0.83109-8.9502-13.026zm6.8631 12.46 0.9334 1.3584-1.4887 1.0229-0.1279-0.18608t0.1117-0.0767q0.1302-0.0895 0.1302-0.0895 0.4839-0.33244 0.5887-0.89754 0.1106-0.59649-0.2032-1.0931zm-7.0835-10.309-0.056 0.0384q-0.351-0.47104-0.9348-0.56306-0.5778-0.12341-1.0617 0.20903 0 0-0.1302 0.0895-0.1117 0.0767-0.1117 0.0767l-0.1278-0.18609 1.4886-1.0229zm8.1814 9.5547 0.056-0.0384q0.351 0.47104 0.9289 0.59445 0.5837 0.092 1.0676-0.24042 0 0 0.1116-0.0767 0.1117-0.0767 0.1303-0.0895l0.1278 0.18609-1.4886 1.0229zm-7.0835-10.309-0.9334-1.3584 1.4887-1.0229 0.1279 0.18609q-0.019 0.0128-0.1303 0.0895-0.1116 0.0767-0.1116 0.0767-0.4838 0.33243-0.5945 0.92893-0.1048 0.5651 0.209 1.0617z"
               id="path48" />
            <path
               d="m1417.2 548.72 10.517 11.797-1.0954 0.97658-10.517-11.797zm14.602 7.2182 0.4658 0.52245-4.6009 4.1016-0.4658-0.52244zm-5.6676-4.8986 0.4507 0.50559-3.8762 3.4556-0.4508-0.5056zm-4.3836-6.3761 0.4657 0.52245-4.6009 4.1016-0.4657-0.52245zm9.1111 8.1505 1.4564 3.6016-2.7976 2.494 0.141-1.0633q0.8932-0.79628 1.209-1.5617 0.3176-0.79732 0.2207-1.6184-0.097-0.8211-0.398-1.7019zm-4.3069-1.3025 0.9916 1.1123-0.1685 0.15025-0.2254-0.2528q-0.3004-0.33706-0.7467-0.36267-0.4613-0.0425-0.7984 0.25803l-0.03-0.0337zm-1.3822-1.5505 0.9916 1.1123-0.9775 0.8714-0.03-0.0337q0.322-0.31734 0.3476-0.76363 0.011-0.46313-0.2899-0.80019l-0.2103-0.23595zm-3.0013-4.8256 1.2019 1.3482-0.1685 0.15024-0.2705-0.30336q-0.3605-0.40447-0.9025-0.43556-0.5569-0.0479-0.9932 0.31081l-0.03-0.0337zm-0.6911-0.77525 0.4357 0.48874-2.2214 1.6476q0.3708-0.33053 0.7302-0.74168 0.3762-0.42616 0.6701-0.80909 0.2938-0.38292 0.3854-0.58555zm4.0954 15.858 1.0967 1.2303-1.3482 1.202-0.1503-0.16854t0.1012-0.0901q0.1179-0.10517 0.1179-0.10517 0.4382-0.39063 0.4711-0.96443 0.035-0.60567-0.339-1.0589zm-8.3235-9.3366-0.051 0.0451q-0.3907-0.43818-0.9813-0.45608-0.6057-0.0347-1.0439 0.35588 0 0-0.1011 0.0901t-0.1011 0.0901l-0.1671-0.1535 1.3482-1.2019z"
               id="path50" />
          </g>
          <g
             transform="matrix(5.3092,0,0,5.3092,2414.9,-4337.6)"
             style="shape-inside:url(#rect14467);white-space:pre"
             aria-label="M"
             id="g56">
            <path
               d="m-458.37 855.69q-0.21166 0-0.21166-0.3175 0-0.35278 0.21166-0.77611 0.21167-0.42334 0.52917-0.70556 0.88194-0.70556 1.1642-1.0231 0.3175-0.35277 0.49389-0.81139 0.17639-0.45861 0.42333-1.6228l3.6336-16.969h-0.24694q-0.21167 0-0.91722-0.0706-1.27-0.10584-1.3758-0.10584-1.9756 0-2.9986 1.3053-0.0706 0.10584-0.24695 0.38806-0.17638 0.24694-0.3175 0.24694-0.17639 0-0.17639-0.3175 0-0.35278 0.10584-0.59972 0.35278-1.4817 1.5169-2.2931 1.1642-0.81139 2.8575-0.81139l1.1642 0.0353q0.98778 0.0706 1.5875 0.0706 0.56445 0 1.27-0.0706l0.91722-0.0353q-0.14111 0.45861-0.14111 1.3406 0 1.1642 0.3175 2.9633 0.35277 1.7639 1.0583 4.8683l1.0936 5.1153q0.0706 0.3175 0.45861 2.5753 1.4817-2.9281 3.9158-7.7611 2.4694-4.8683 4.0217-7.9022 1.3406-2.54 2.4694-3.9864 1.1642-1.4817 2.3989-2.3283 1.023-0.67028 2.0814-0.9525 1.0583-0.3175 2.6106-0.42333 1.1994-0.0706 1.5522-0.21167 0.0706-0.0353 0.14111-0.0705 0.10583-0.0706 0.17639-0.0706 0.17639 0 0.17639 0.28222 0 1.1994-2.1872 1.5522-0.14111 0.0353-0.88194 0.14111-0.74084 0.10583-1.4817 0.38805-0.70556 0.24695-1.2347 0.67028-1.1642 0.91722-2.0108 3.0339-0.84667 2.0814-1.3758 5.9267-0.24695 1.5522-0.59972 5.5739-0.42334 5.2917-1.1642 9.8778-0.10584 0.84667-0.67028 1.4817v0.0353q0.88194 0.3175 1.4817 0.3175 0.49389 0 1.023-0.17638 0.52917-0.21167 0.635-0.21167 0.17639 0 0.17639 0.21167 0 0.28222-0.45861 0.77611-1.2347 1.4464-2.1167 1.4464-0.28222 0-1.3406-0.28223-1.27-0.3175-1.6581-0.3175-0.635 0-1.3406 0.3175-0.67027 0.28223-0.74083 0.28223-0.21167 0-0.21167-0.3175t0.21167-0.70556q0.21167-0.42333 0.635-0.77611 1.0231-0.74083 1.3053-1.1289 0.3175-0.38806 0.42333-1.0583l0.17639-1.5875q0.38806-3.5278 0.74084-6.8439 0.38805-3.3161 0.70555-6.2089h-0.0706q-5.4328 9.6308-6.985 13.829-0.52917 1.1289-1.2347 2.2225-0.70556 1.0936-1.0231 1.0936-0.28222 0-0.28222-0.35278-0.10583-2.1519-0.35278-3.7042-0.21167-1.5875-0.91722-5.0094-0.56445-2.8222-0.56445-2.8222-0.67027-2.9633-0.9525-4.7272h-0.0353l-2.9633 14.217q-0.10583 0.88194-0.635 1.4817v0.0353q0.9525 0.3175 1.4111 0.3175 0.42334 0 0.81139-0.17638 0.38806-0.21167 0.49389-0.21167 0.17639 0 0.17639 0.21167 0 0.3175-0.45861 0.77611-1.3406 1.4464-2.1167 1.4464-0.3175 0-1.0231-0.28223-0.10583-0.0353-0.52916-0.17638-0.38806-0.14112-0.77612-0.14112-0.56444 0-1.0936 0.3175-0.52916 0.28223-0.635 0.28223z"
               fill="#fff"
               id="path54" />
          </g>
          <g
             transform="matrix(5.3092,0,0,5.3092,2527.5,-4288.2)"
             style="shape-inside:url(#rect14469);white-space:pre"
             aria-label="L"
             id="g60">
            <path
               d="m-460.74 855.69q-0.10583 0-0.14111-0.10584-0.0706-0.10583-0.0706-0.21166 0-0.45861 0.38806-1.0583 0.38805-0.635 0.9525-1.0583 0.59972-0.45861 1.1289-0.45861h0.81139q0.49389-0.635 0.81139-1.4464 0.35278-0.84667 0.59972-2.3989l2.152-12.559q0.21166-1.4464 0.88194-2.7164t2.0108-2.5753q2.3636-2.3636 5.2211-2.3636 0.70556 0 1.4111 0.14111 0.74084 0.10583 1.1994 0.35278 0.42333 0.24694 0.42333 0.42333 0 0.3175-0.81139 0.70556-0.81139 0.38805-1.3053 0.38805-0.14111 0-0.77611-0.17639t-1.3053-0.17639q-1.2347 0-2.3283 0.84667-0.70556 0.56445-1.1642 1.6581-0.42333 1.0936-0.74083 2.7869l-2.6106 14.746q-0.14111 0.74084-0.45861 1.4464-0.3175 0.67028-0.74084 1.0583v0.0353q0.67028 0.14111 2.4342 0.28222 1.7639 0.10583 2.7517 0.10583 3.0692 0 5.5739-1.4817 0.3175-0.21166 0.45862-0.21166 0.24694 0 0.24694 0.38805 0 0.67028-0.98778 1.5522-0.9525 0.84666-2.6106 1.4817-1.6228 0.59973-3.4572 0.59973-0.88195 0-3.2808-0.28223-0.35277-0.0353-1.5875-0.17638-1.2347-0.14112-2.2225-0.14112-1.023 0-1.5522 0.14112-0.49389 0.10583-0.81139 0.28222-0.35278 0.17639-0.49389 0.17639z"
               fill="#fff"
               id="path58" />
          </g>
        </g>
      </g>
    </g>
  </g>
</svg>
